<svg width="55" height="55" viewBox="0 0 55 55" fill="none" xmlns="http://www.w3.org/2000/svg">
<path d="M51.5625 5.14537L37.8005 5.14542V1.71915C37.8005 0.769321 37.0313 0 36.0817 0C35.1321 0 34.363 0.769321 34.363 1.71915V5.14457H20.613V1.71915C20.613 0.769321 19.8438 0 18.8942 0C17.9446 0 17.1755 0.769321 17.1755 1.71915V5.14457H3.4375C1.53914 5.14457 0 6.68407 0 8.58287V51.5617C0 53.4604 1.53914 55 3.4375 55H51.5625C53.4609 55 55 53.4604 55 51.5617V8.58287C55 6.68487 53.4609 5.14537 51.5625 5.14537ZM51.5625 51.5617H3.4375V8.58287H17.1755V10.3149C17.1755 11.2647 17.9446 12.0341 18.8942 12.0341C19.8438 12.0341 20.613 11.2647 20.613 10.3149V8.58373H34.363V10.3158C34.363 11.2656 35.1321 12.0349 36.0817 12.0349C37.0313 12.0349 37.8005 11.2656 37.8005 10.3158V8.58373H51.5625V51.5617ZM39.5312 27.4944H42.9688C43.9175 27.4944 44.6875 26.7242 44.6875 25.7752V22.3369C44.6875 21.3879 43.9175 20.6177 42.9688 20.6177H39.5312C38.5825 20.6177 37.8125 21.3879 37.8125 22.3369V25.7752C37.8125 26.7242 38.5825 27.4944 39.5312 27.4944ZM39.5312 41.2467H42.9688C43.9175 41.2467 44.6875 40.4774 44.6875 39.5276V36.0893C44.6875 35.1403 43.9175 34.3701 42.9688 34.3701H39.5312C38.5825 34.3701 37.8125 35.1403 37.8125 36.0893V39.5276C37.8125 40.4783 38.5825 41.2467 39.5312 41.2467ZM29.2188 34.3701H25.7812C24.8325 34.3701 24.0625 35.1403 24.0625 36.0893V39.5276C24.0625 40.4774 24.8325 41.2467 25.7812 41.2467H29.2188C30.1675 41.2467 30.9375 40.4774 30.9375 39.5276V36.0893C30.9375 35.1412 30.1675 34.3701 29.2188 34.3701ZM29.2188 20.6177H25.7812C24.8325 20.6177 24.0625 21.3879 24.0625 22.3369V25.7752C24.0625 26.7242 24.8325 27.4944 25.7812 27.4944H29.2188C30.1675 27.4944 30.9375 26.7242 30.9375 25.7752V22.3369C30.9375 21.3871 30.1675 20.6177 29.2188 20.6177ZM15.4688 20.6177H12.0312C11.0825 20.6177 10.3125 21.3879 10.3125 22.3369V25.7752C10.3125 26.7242 11.0825 27.4944 12.0312 27.4944H15.4688C16.4175 27.4944 17.1875 26.7242 17.1875 25.7752V22.3369C17.1875 21.3871 16.4175 20.6177 15.4688 20.6177ZM15.4688 34.3701H12.0312C11.0825 34.3701 10.3125 35.1403 10.3125 36.0893V39.5276C10.3125 40.4774 11.0825 41.2467 12.0312 41.2467H15.4688C16.4175 41.2467 17.1875 40.4774 17.1875 39.5276V36.0893C17.1875 35.1412 16.4175 34.3701 15.4688 34.3701Z" fill="#F8F8F8"/>
</svg>
