<svg width="100" height="100" viewBox="0 0 100 100" fill="none" xmlns="http://www.w3.org/2000/svg">
<g clip-path="url(#clip0_63_60023)">
<g clip-path="url(#clip1_63_60023)">
<path d="M52 25.51H51V26.51H52V25.51Z" fill="#47474A" fill-opacity="0.309804"/>
<path d="M53 25.52H52V26.52H53V25.52Z" fill="#47474A" fill-opacity="0.658824"/>
<path d="M54 25.53H53V26.53H54V25.53Z" fill="#48484A" fill-opacity="0.886275"/>
<path d="M55 25.54H54V26.54H55V25.54Z" fill="#48484A" fill-opacity="0.94902"/>
<path d="M56 25.55H55V26.55H56V25.55Z" fill="#47474A" fill-opacity="0.937255"/>
<path d="M57 25.56H56V26.56H57V25.56Z" fill="#48484A" fill-opacity="0.772549"/>
<path d="M58 25.57H57V26.57H58V25.57Z" fill="#49494B" fill-opacity="0.454902"/>
<path d="M59 25.58H58V26.58H59V25.58Z" fill="#555555" fill-opacity="0.0352941"/>
<path d="M50 26.49H49V27.49H50V26.49Z" fill="#484848" fill-opacity="0.207843"/>
<path d="M51 26.5H50V27.5H51V26.5Z" fill="#484849" fill-opacity="0.682353"/>
<path d="M52 26.51H51V27.51H52V26.51Z" fill="#48484A"/>
<path d="M53 26.52H52V27.52H53V26.52Z" fill="#48484A"/>
<path d="M54 26.53H53V27.53H54V26.53Z" fill="#48484A"/>
<path d="M55 26.54H54V27.54H55V26.54Z" fill="#48484A"/>
<path d="M56 26.55H55V27.55H56V26.55Z" fill="#48484A"/>
<path d="M57 26.56H56V27.56H57V26.56Z" fill="#48484A"/>
<path d="M58 26.57H57V27.57H58V26.57Z" fill="#48484A"/>
<path d="M59 26.58H58V27.58H59V26.58Z" fill="#48484A" fill-opacity="0.886275"/>
<path d="M60 26.59H59V27.59H60V26.59Z" fill="#47474A" fill-opacity="0.380392"/>
<path d="M49 27.48H48V28.48H49V27.48Z" fill="#47474C" fill-opacity="0.184314"/>
<path d="M50 27.49H49V28.49H50V27.49Z" fill="#48484A"/>
<path d="M51 27.5H50V28.5H51V27.5Z" fill="#48484A"/>
<path d="M52 27.51H51V28.51H52V27.51Z" fill="#48484A"/>
<path d="M53 27.52H52V28.52H53V27.52Z" fill="#48484A"/>
<path d="M54 27.53H53V28.53H54V27.53Z" fill="#48484A"/>
<path d="M55 27.54H54V28.54H55V27.54Z" fill="#48484A"/>
<path d="M56 27.55H55V28.55H56V27.55Z" fill="#48484A"/>
<path d="M57 27.56H56V28.56H57V27.56Z" fill="#48484A"/>
<path d="M58 27.57H57V28.57H58V27.57Z" fill="#48484A"/>
<path d="M59 27.58H58V28.58H59V27.58Z" fill="#48484A"/>
<path d="M60 27.59H59V28.59H60V27.59Z" fill="#48484A"/>
<path d="M61 27.6H60V28.6H61V27.6Z" fill="#48484A" fill-opacity="0.513726"/>
<path d="M48 28.47H47V29.47H48V28.47Z" fill="#42424A" fill-opacity="0.121569"/>
<path d="M49 28.48H48V29.48H49V28.48Z" fill="#48484A" fill-opacity="0.996078"/>
<path d="M50 28.49H49V29.49H50V28.49Z" fill="#48484A"/>
<path d="M51 28.5H50V29.5H51V28.5Z" fill="#48484A"/>
<path d="M52 28.51H51V29.51H52V28.51Z" fill="#48484A"/>
<path d="M53 28.52H52V29.52H53V28.52Z" fill="#48484A"/>
<path d="M54 28.53H53V29.53H54V28.53Z" fill="#48484A"/>
<path d="M55 28.54H54V29.54H55V28.54Z" fill="#48484A"/>
<path d="M56 28.55H55V29.55H56V28.55Z" fill="#48484A"/>
<path d="M57 28.56H56V29.56H57V28.56Z" fill="#48484A"/>
<path d="M58 28.57H57V29.57H58V28.57Z" fill="#48484A"/>
<path d="M59 28.58H58V29.58H59V28.58Z" fill="#48484A"/>
<path d="M60 28.59H59V29.59H60V28.59Z" fill="#48484A"/>
<path d="M61 28.6H60V29.6H61V28.6Z" fill="#48484A"/>
<path d="M62 28.61H61V29.61H62V28.61Z" fill="#48484A" fill-opacity="0.376471"/>
<path d="M41 29.4H40V30.4H41V29.4Z" fill="white" fill-opacity="0.0156863"/>
<path d="M42 29.41H41V30.41H42V29.41Z" fill="#F5F5F5" fill-opacity="0.0980392"/>
<path d="M43 29.42H42V30.42H43V29.42Z" fill="#F5F5F5" fill-opacity="0.101961"/>
<path d="M44 29.43H43V30.43H44V29.43Z" fill="white" fill-opacity="0.01"/>
<path d="M48 29.47H47V30.47H48V29.47Z" fill="#373739" fill-opacity="0.678431"/>
<path d="M49 29.48H48V30.48H49V29.48Z" fill="#49494B"/>
<path d="M50 29.49H49V30.49H50V29.49Z" fill="#48484A"/>
<path d="M51 29.5H50V30.5H51V29.5Z" fill="#48484A"/>
<path d="M52 29.51H51V30.51H52V29.51Z" fill="#48484A"/>
<path d="M53 29.52H52V30.52H53V29.52Z" fill="#48484A"/>
<path d="M54 29.53H53V30.53H54V29.53Z" fill="#48484A"/>
<path d="M55 29.54H54V30.54H55V29.54Z" fill="#48484A"/>
<path d="M56 29.55H55V30.55H56V29.55Z" fill="#48484A"/>
<path d="M57 29.56H56V30.56H57V29.56Z" fill="#48484A"/>
<path d="M58 29.57H57V30.57H58V29.57Z" fill="#48484A"/>
<path d="M59 29.58H58V30.58H59V29.58Z" fill="#48484A"/>
<path d="M60 29.59H59V30.59H60V29.59Z" fill="#48484A"/>
<path d="M61 29.6H60V30.6H61V29.6Z" fill="#48484A"/>
<path d="M62 29.61H61V30.61H62V29.61Z" fill="#48484A" fill-opacity="0.960784"/>
<path d="M63 29.62H62V30.62H63V29.62Z" fill="#474747" fill-opacity="0.0705882"/>
<path d="M38 30.37H37V31.37H38V30.37Z" fill="white" fill-opacity="0.01"/>
<path d="M39 30.38H38V31.38H39V30.38Z" fill="#F3F3F0" fill-opacity="0.341176"/>
<path d="M40 30.39H39V31.39H40V30.39Z" fill="#F2F2F2" fill-opacity="0.678431"/>
<path d="M41 30.4H40V31.4H41V30.4Z" fill="#F2F2F1" fill-opacity="0.901961"/>
<path d="M42 30.41H41V31.41H42V30.41Z" fill="#F2F2F1" fill-opacity="0.984314"/>
<path d="M43 30.42H42V31.42H43V30.42Z" fill="#F2F2F1" fill-opacity="0.984314"/>
<path d="M44 30.43H43V31.43H44V30.43Z" fill="#F1F1F1" fill-opacity="0.886275"/>
<path d="M45 30.44H44V31.44H45V30.44Z" fill="#F4F4F3" fill-opacity="0.658824"/>
<path d="M46 30.45H45V31.45H46V30.45Z" fill="white" fill-opacity="0.258824"/>
<path d="M47 30.46H46V31.46H47V30.46Z" fill="#838383" fill-opacity="0.152941"/>
<path d="M48 30.47H47V31.47H48V30.47Z" fill="#121216"/>
<path d="M49 30.48H48V31.48H49V30.48Z" fill="#474749"/>
<path d="M50 30.49H49V31.49H50V30.49Z" fill="#4A4A4C"/>
<path d="M51 30.5H50V31.5H51V30.5Z" fill="#48484A"/>
<path d="M52 30.51H51V31.51H52V30.51Z" fill="#48484A"/>
<path d="M53 30.52H52V31.52H53V30.52Z" fill="#48484A"/>
<path d="M54 30.53H53V31.53H54V30.53Z" fill="#48484A"/>
<path d="M55 30.54H54V31.54H55V30.54Z" fill="#48484A"/>
<path d="M56 30.55H55V31.55H56V30.55Z" fill="#48484A"/>
<path d="M57 30.56H56V31.56H57V30.56Z" fill="#48484A"/>
<path d="M58 30.57H57V31.57H58V30.57Z" fill="#48484A"/>
<path d="M59 30.58H58V31.58H59V30.58Z" fill="#48484A"/>
<path d="M60 30.59H59V31.59H60V30.59Z" fill="#48484A"/>
<path d="M61 30.6H60V31.6H61V30.6Z" fill="#48484A"/>
<path d="M62 30.61H61V31.61H62V30.61Z" fill="#48484A"/>
<path d="M63 30.62H62V31.62H63V30.62Z" fill="#48484A" fill-opacity="0.568627"/>
<path d="M37 31.36H36V32.36H37V31.36Z" fill="#F2F2F0" fill-opacity="0.396078"/>
<path d="M38 31.37H37V32.37H38V31.37Z" fill="#F3F3F1" fill-opacity="0.882353"/>
<path d="M39 31.38H38V32.38H39V31.38Z" fill="#F2F2F1"/>
<path d="M40 31.39H39V32.39H40V31.39Z" fill="#F2F2F1"/>
<path d="M41 31.4H40V32.4H41V31.4Z" fill="#F2F2F1"/>
<path d="M42 31.41H41V32.41H42V31.41Z" fill="#F2F2F1"/>
<path d="M43 31.42H42V32.42H43V31.42Z" fill="#F2F2F1"/>
<path d="M44 31.43H43V32.43H44V31.43Z" fill="#F2F2F1"/>
<path d="M45 31.44H44V32.44H45V31.44Z" fill="#F1F1F0"/>
<path d="M46 31.45H45V32.45H46V31.45Z" fill="#F8F8F8"/>
<path d="M47 31.46H46V32.46H47V31.46Z" fill="#F4F4F4" fill-opacity="0.960784"/>
<path d="M48 31.47H47V32.47H48V31.47Z" fill="#7D7D7E"/>
<path d="M49 31.48H48V32.48H49V31.48Z" fill="#1F1F21"/>
<path d="M50 31.49H49V32.49H50V31.49Z" fill="#3F3F41"/>
<path d="M51 31.5H50V32.5H51V31.5Z" fill="#4B4B4D"/>
<path d="M52 31.51H51V32.51H52V31.51Z" fill="#48484A"/>
<path d="M53 31.52H52V32.52H53V31.52Z" fill="#48484A"/>
<path d="M54 31.53H53V32.53H54V31.53Z" fill="#48484A"/>
<path d="M55 31.54H54V32.54H55V31.54Z" fill="#48484A"/>
<path d="M56 31.55H55V32.55H56V31.55Z" fill="#48484A"/>
<path d="M57 31.56H56V32.56H57V31.56Z" fill="#48484A"/>
<path d="M58 31.57H57V32.57H58V31.57Z" fill="#48484A"/>
<path d="M59 31.58H58V32.58H59V31.58Z" fill="#48484A"/>
<path d="M60 31.59H59V32.59H60V31.59Z" fill="#48484A"/>
<path d="M61 31.6H60V32.6H61V31.6Z" fill="#48484A"/>
<path d="M62 31.61H61V32.61H62V31.61Z" fill="#48484A"/>
<path d="M63 31.62H62V32.62H63V31.62Z" fill="#48484A" fill-opacity="0.835294"/>
<path d="M66 31.65H65V32.65H66V31.65Z" fill="#46464B" fill-opacity="0.2"/>
<path d="M67 31.66H66V32.66H67V31.66Z" fill="#484848" fill-opacity="0.262745"/>
<path d="M68 31.67H67V32.67H68V31.67Z" fill="#494949" fill-opacity="0.137255"/>
<path d="M36 32.35H35V33.35H36V32.35Z" fill="#F3F3F1" fill-opacity="0.568627"/>
<path d="M37 32.36H36V33.36H37V32.36Z" fill="#F2F2F1"/>
<path d="M38 32.37H37V33.37H38V32.37Z" fill="#F2F2F1"/>
<path d="M39 32.38H38V33.38H39V32.38Z" fill="#F2F2F1"/>
<path d="M40 32.39H39V33.39H40V32.39Z" fill="#F2F2F1"/>
<path d="M41 32.4H40V33.4H41V32.4Z" fill="#F2F2F1"/>
<path d="M42 32.41H41V33.41H42V32.41Z" fill="#F2F2F1"/>
<path d="M43 32.42H42V33.42H43V32.42Z" fill="#F2F2F1"/>
<path d="M44 32.43H43V33.43H44V32.43Z" fill="#F2F2F1"/>
<path d="M45 32.44H44V33.44H45V32.44Z" fill="#F2F2F1"/>
<path d="M46 32.45H45V33.45H46V32.45Z" fill="#F0F0EF"/>
<path d="M47 32.46H46V33.46H47V32.46Z" fill="white"/>
<path d="M48 32.47H47V33.47H48V32.47Z" fill="white"/>
<path d="M49 32.48H48V33.48H49V32.48Z" fill="#9D9D9E"/>
<path d="M50 32.49H49V33.49H50V32.49Z" fill="#2F2F31"/>
<path d="M51 32.5H50V33.5H51V32.5Z" fill="#3E3E40"/>
<path d="M52 32.51H51V33.51H52V32.51Z" fill="#4A4A4C"/>
<path d="M53 32.52H52V33.52H53V32.52Z" fill="#48484A"/>
<path d="M54 32.53H53V33.53H54V32.53Z" fill="#48484A"/>
<path d="M55 32.54H54V33.54H55V32.54Z" fill="#48484A"/>
<path d="M56 32.55H55V33.55H56V32.55Z" fill="#48484A"/>
<path d="M57 32.56H56V33.56H57V32.56Z" fill="#48484A"/>
<path d="M58 32.57H57V33.57H58V32.57Z" fill="#48484A"/>
<path d="M59 32.58H58V33.58H59V32.58Z" fill="#48484A"/>
<path d="M60 32.59H59V33.59H60V32.59Z" fill="#48484A"/>
<path d="M61 32.6H60V33.6H61V32.6Z" fill="#48484A"/>
<path d="M62 32.61H61V33.61H62V32.61Z" fill="#48484A"/>
<path d="M63 32.62H62V33.62H63V32.62Z" fill="#48484A" fill-opacity="0.87451"/>
<path d="M64 32.63H63V33.63H64V32.63Z" fill="#48484A" fill-opacity="0.376471"/>
<path d="M65 32.64H64V33.64H65V32.64Z" fill="#47474A" fill-opacity="0.784314"/>
<path d="M66 32.65H65V33.65H66V32.65Z" fill="#48484A"/>
<path d="M67 32.66H66V33.66H67V32.66Z" fill="#48484A"/>
<path d="M68 32.67H67V33.67H68V32.67Z" fill="#48484A"/>
<path d="M69 32.68H68V33.68H69V32.68Z" fill="#484849" fill-opacity="0.682353"/>
<path d="M70 32.69H69V33.69H70V32.69Z" fill="#47474C" fill-opacity="0.184314"/>
<path d="M35 33.34H34V34.34H35V33.34Z" fill="#F2F2F0" fill-opacity="0.615686"/>
<path d="M36 33.35H35V34.35H36V33.35Z" fill="#F2F2F1"/>
<path d="M37 33.36H36V34.36H37V33.36Z" fill="#F2F2F1"/>
<path d="M38 33.37H37V34.37H38V33.37Z" fill="#F2F2F1"/>
<path d="M39 33.38H38V34.38H39V33.38Z" fill="#F2F2F1"/>
<path d="M40 33.39H39V34.39H40V33.39Z" fill="#F2F2F1"/>
<path d="M41 33.4H40V34.4H41V33.4Z" fill="#F2F2F1"/>
<path d="M42 33.41H41V34.41H42V33.41Z" fill="#F2F2F1"/>
<path d="M43 33.42H42V34.42H43V33.42Z" fill="#F2F2F1"/>
<path d="M44 33.43H43V34.43H44V33.43Z" fill="#F2F2F1"/>
<path d="M45 33.44H44V34.44H45V33.44Z" fill="#F2F2F1"/>
<path d="M46 33.45H45V34.45H46V33.45Z" fill="#F2F2F1"/>
<path d="M47 33.46H46V34.46H47V33.46Z" fill="#F0F0EF"/>
<path d="M48 33.47H47V34.47H48V33.47Z" fill="#FBFBFA"/>
<path d="M49 33.48H48V34.48H49V33.48Z" fill="white"/>
<path d="M50 33.49H49V34.49H50V33.49Z" fill="#989899"/>
<path d="M51 33.5H50V34.5H51V33.5Z" fill="#222224"/>
<path d="M52 33.51H51V34.51H52V33.51Z" fill="#474749"/>
<path d="M53 33.52H52V34.52H53V33.52Z" fill="#48484A"/>
<path d="M54 33.53H53V34.53H54V33.53Z" fill="#48484A"/>
<path d="M55 33.54H54V34.54H55V33.54Z" fill="#48484A"/>
<path d="M56 33.55H55V34.55H56V33.55Z" fill="#48484A"/>
<path d="M57 33.56H56V34.56H57V33.56Z" fill="#48484A"/>
<path d="M58 33.57H57V34.57H58V33.57Z" fill="#48484A"/>
<path d="M59 33.58H58V34.58H59V33.58Z" fill="#48484A"/>
<path d="M60 33.59H59V34.59H60V33.59Z" fill="#48484A"/>
<path d="M61 33.6H60V34.6H61V33.6Z" fill="#48484A"/>
<path d="M62 33.61H61V34.61H62V33.61Z" fill="#48484A"/>
<path d="M63 33.62H62V34.62H63V33.62Z" fill="#48484A"/>
<path d="M64 33.63H63V34.63H64V33.63Z" fill="#48484A"/>
<path d="M65 33.64H64V34.64H65V33.64Z" fill="#48484A"/>
<path d="M66 33.65H65V34.65H66V33.65Z" fill="#48484A"/>
<path d="M67 33.66H66V34.66H67V33.66Z" fill="#48484A"/>
<path d="M68 33.67H67V34.67H68V33.67Z" fill="#48484A"/>
<path d="M69 33.68H68V34.68H69V33.68Z" fill="#48484A"/>
<path d="M70 33.69H69V34.69H70V33.69Z" fill="#48484A"/>
<path d="M71 33.7H70V34.7H71V33.7Z" fill="#484848" fill-opacity="0.152941"/>
<path d="M34 34.33H33V35.33H34V34.33Z" fill="#F1F1F1" fill-opacity="0.286275"/>
<path d="M35 34.34H34V35.34H35V34.34Z" fill="#F2F2F1"/>
<path d="M36 34.35H35V35.35H36V34.35Z" fill="#F2F2F1"/>
<path d="M37 34.36H36V35.36H37V34.36Z" fill="#F2F2F1"/>
<path d="M38 34.37H37V35.37H38V34.37Z" fill="#F2F2F1"/>
<path d="M39 34.38H38V35.38H39V34.38Z" fill="#F2F2F1"/>
<path d="M40 34.39H39V35.39H40V34.39Z" fill="#F2F2F1"/>
<path d="M41 34.4H40V35.4H41V34.4Z" fill="#F2F2F1"/>
<path d="M42 34.41H41V35.41H42V34.41Z" fill="#F2F2F1"/>
<path d="M43 34.42H42V35.42H43V34.42Z" fill="#F2F2F1"/>
<path d="M44 34.43H43V35.43H44V34.43Z" fill="#F2F2F1"/>
<path d="M45 34.44H44V35.44H45V34.44Z" fill="#F2F2F1"/>
<path d="M46 34.45H45V35.45H46V34.45Z" fill="#F2F2F1"/>
<path d="M47 34.46H46V35.46H47V34.46Z" fill="#F2F2F1"/>
<path d="M48 34.47H47V35.47H48V34.47Z" fill="#F1F1F0"/>
<path d="M49 34.48H48V35.48H49V34.48Z" fill="#F8F8F7"/>
<path d="M50 34.49H49V35.49H50V34.49Z" fill="white"/>
<path d="M51 34.5H50V35.5H51V34.5Z" fill="#7D7D7E"/>
<path d="M52 34.51H51V35.51H52V34.51Z" fill="#2A2A2D"/>
<path d="M53 34.52H52V35.52H53V34.52Z" fill="#4A4A4C"/>
<path d="M54 34.53H53V35.53H54V34.53Z" fill="#48484A"/>
<path d="M55 34.54H54V35.54H55V34.54Z" fill="#48484A"/>
<path d="M56 34.55H55V35.55H56V34.55Z" fill="#48484A"/>
<path d="M57 34.56H56V35.56H57V34.56Z" fill="#48484A"/>
<path d="M58 34.57H57V35.57H58V34.57Z" fill="#48484A"/>
<path d="M59 34.58H58V35.58H59V34.58Z" fill="#48484A"/>
<path d="M60 34.59H59V35.59H60V34.59Z" fill="#48484A"/>
<path d="M61 34.6H60V35.6H61V34.6Z" fill="#48484A"/>
<path d="M62 34.61H61V35.61H62V34.61Z" fill="#48484A"/>
<path d="M63 34.62H62V35.62H63V34.62Z" fill="#48484A"/>
<path d="M64 34.63H63V35.63H64V34.63Z" fill="#48484A"/>
<path d="M65 34.64H64V35.64H65V34.64Z" fill="#48484A"/>
<path d="M66 34.65H65V35.65H66V34.65Z" fill="#48484A"/>
<path d="M67 34.66H66V35.66H67V34.66Z" fill="#48484A"/>
<path d="M68 34.67H67V35.67H68V34.67Z" fill="#48484A"/>
<path d="M69 34.68H68V35.68H69V34.68Z" fill="#48484A"/>
<path d="M70 34.69H69V35.69H70V34.69Z" fill="#48484A"/>
<path d="M71 34.7H70V35.7H71V34.7Z" fill="#48484A" fill-opacity="0.796078"/>
<path d="M33 35.32H32V36.32H33V35.32Z" fill="#EDEDED" fill-opacity="0.054902"/>
<path d="M34 35.33H33V36.33H34V35.33Z" fill="#F2F2F1" fill-opacity="0.941176"/>
<path d="M35 35.34H34V36.34H35V35.34Z" fill="#F2F2F1"/>
<path d="M36 35.35H35V36.35H36V35.35Z" fill="#F2F2F1"/>
<path d="M37 35.36H36V36.36H37V35.36Z" fill="#F2F2F1"/>
<path d="M38 35.37H37V36.37H38V35.37Z" fill="#F2F2F1"/>
<path d="M39 35.38H38V36.38H39V35.38Z" fill="#F2F2F1"/>
<path d="M40 35.39H39V36.39H40V35.39Z" fill="#F2F2F1"/>
<path d="M41 35.4H40V36.4H41V35.4Z" fill="#F2F2F1"/>
<path d="M42 35.41H41V36.41H42V35.41Z" fill="#F2F2F1"/>
<path d="M43 35.42H42V36.42H43V35.42Z" fill="#F2F2F1"/>
<path d="M44 35.43H43V36.43H44V35.43Z" fill="#F2F2F1"/>
<path d="M45 35.44H44V36.44H45V35.44Z" fill="#F2F2F1"/>
<path d="M46 35.45H45V36.45H46V35.45Z" fill="#F2F2F1"/>
<path d="M47 35.46H46V36.46H47V35.46Z" fill="#F2F2F1"/>
<path d="M48 35.47H47V36.47H48V35.47Z" fill="#F2F2F1"/>
<path d="M49 35.48H48V36.48H49V35.48Z" fill="#F0F0EF"/>
<path d="M50 35.49H49V36.49H50V35.49Z" fill="white"/>
<path d="M51 35.5H50V36.5H51V35.5Z" fill="#E3E3E2"/>
<path d="M52 35.51H51V36.51H52V35.51Z" fill="#38383A"/>
<path d="M53 35.52H52V36.52H53V35.52Z" fill="#424244"/>
<path d="M54 35.53H53V36.53H54V35.53Z" fill="#48484A"/>
<path d="M55 35.54H54V36.54H55V35.54Z" fill="#48484A"/>
<path d="M56 35.55H55V36.55H56V35.55Z" fill="#48484A"/>
<path d="M57 35.56H56V36.56H57V35.56Z" fill="#48484A"/>
<path d="M58 35.57H57V36.57H58V35.57Z" fill="#48484A"/>
<path d="M59 35.58H58V36.58H59V35.58Z" fill="#48484A"/>
<path d="M60 35.59H59V36.59H60V35.59Z" fill="#48484A"/>
<path d="M61 35.6H60V36.6H61V35.6Z" fill="#48484A"/>
<path d="M62 35.61H61V36.61H62V35.61Z" fill="#48484A"/>
<path d="M63 35.62H62V36.62H63V35.62Z" fill="#48484A"/>
<path d="M64 35.63H63V36.63H64V35.63Z" fill="#48484A"/>
<path d="M65 35.64H64V36.64H65V35.64Z" fill="#48484A"/>
<path d="M66 35.65H65V36.65H66V35.65Z" fill="#48484A"/>
<path d="M67 35.66H66V36.66H67V35.66Z" fill="#48484A"/>
<path d="M68 35.67H67V36.67H68V35.67Z" fill="#48484A"/>
<path d="M69 35.68H68V36.68H69V35.68Z" fill="#48484A"/>
<path d="M70 35.69H69V36.69H70V35.69Z" fill="#48484A"/>
<path d="M71 35.7H70V36.7H71V35.7Z" fill="#48484A"/>
<path d="M72 35.71H71V36.71H72V35.71Z" fill="#484848" fill-opacity="0.207843"/>
<path d="M33 36.32H32V37.32H33V36.32Z" fill="#F1F1F1" fill-opacity="0.352941"/>
<path d="M34 36.33H33V37.33H34V36.33Z" fill="#F2F2F1"/>
<path d="M35 36.34H34V37.34H35V36.34Z" fill="#F2F2F1"/>
<path d="M36 36.35H35V37.35H36V36.35Z" fill="#F2F2F1"/>
<path d="M37 36.36H36V37.36H37V36.36Z" fill="#F2F2F1"/>
<path d="M38 36.37H37V37.37H38V36.37Z" fill="#F2F2F1"/>
<path d="M39 36.38H38V37.38H39V36.38Z" fill="#F2F2F1"/>
<path d="M40 36.39H39V37.39H40V36.39Z" fill="#F2F2F1"/>
<path d="M41 36.4H40V37.4H41V36.4Z" fill="#F2F2F1"/>
<path d="M42 36.41H41V37.41H42V36.41Z" fill="#F2F2F1"/>
<path d="M43 36.42H42V37.42H43V36.42Z" fill="#F2F2F1"/>
<path d="M44 36.43H43V37.43H44V36.43Z" fill="#F2F2F1"/>
<path d="M45 36.44H44V37.44H45V36.44Z" fill="#F2F2F1"/>
<path d="M46 36.45H45V37.45H46V36.45Z" fill="#F2F2F1"/>
<path d="M47 36.46H46V37.46H47V36.46Z" fill="#F2F2F1"/>
<path d="M48 36.47H47V37.47H48V36.47Z" fill="#F2F2F1"/>
<path d="M49 36.48H48V37.48H49V36.48Z" fill="#F2F2F1"/>
<path d="M50 36.49H49V37.49H50V36.49Z" fill="#F7F7F6"/>
<path d="M51 36.5H50V37.5H51V36.5Z" fill="white"/>
<path d="M52 36.51H51V37.51H52V36.51Z" fill="#727273"/>
<path d="M53 36.52H52V37.52H53V36.52Z" fill="#2E2E30"/>
<path d="M54 36.53H53V37.53H54V36.53Z" fill="#48484A"/>
<path d="M55 36.54H54V37.54H55V36.54Z" fill="#3D3D3F"/>
<path d="M56 36.55H55V37.55H56V36.55Z" fill="#343436"/>
<path d="M57 36.56H56V37.56H57V36.56Z" fill="#363638"/>
<path d="M58 36.57H57V37.57H58V36.57Z" fill="#424244"/>
<path d="M59 36.58H58V37.58H59V36.58Z" fill="#49494B"/>
<path d="M60 36.59H59V37.59H60V36.59Z" fill="#48484A"/>
<path d="M61 36.6H60V37.6H61V36.6Z" fill="#48484A"/>
<path d="M62 36.61H61V37.61H62V36.61Z" fill="#48484A"/>
<path d="M63 36.62H62V37.62H63V36.62Z" fill="#48484A"/>
<path d="M64 36.63H63V37.63H64V36.63Z" fill="#48484A"/>
<path d="M65 36.64H64V37.64H65V36.64Z" fill="#48484A"/>
<path d="M66 36.65H65V37.65H66V36.65Z" fill="#48484A"/>
<path d="M67 36.66H66V37.66H67V36.66Z" fill="#48484A"/>
<path d="M68 36.67H67V37.67H68V36.67Z" fill="#48484A"/>
<path d="M69 36.68H68V37.68H69V36.68Z" fill="#48484A"/>
<path d="M70 36.69H69V37.69H70V36.69Z" fill="#48484A"/>
<path d="M71 36.7H70V37.7H71V36.7Z" fill="#48484A"/>
<path d="M72 36.71H71V37.71H72V36.71Z" fill="#49494B" fill-opacity="0.439216"/>
<path d="M33 37.32H32V38.32H33V37.32Z" fill="#F3F3F1" fill-opacity="0.572549"/>
<path d="M34 37.33H33V38.33H34V37.33Z" fill="#F2F2F1"/>
<path d="M35 37.34H34V38.34H35V37.34Z" fill="#F2F2F1"/>
<path d="M36 37.35H35V38.35H36V37.35Z" fill="#F2F2F1"/>
<path d="M37 37.36H36V38.36H37V37.36Z" fill="#F2F2F1"/>
<path d="M38 37.37H37V38.37H38V37.37Z" fill="#F2F2F1"/>
<path d="M39 37.38H38V38.38H39V37.38Z" fill="#F2F2F1"/>
<path d="M40 37.39H39V38.39H40V37.39Z" fill="#F2F2F1"/>
<path d="M41 37.4H40V38.4H41V37.4Z" fill="#F2F2F1"/>
<path d="M42 37.41H41V38.41H42V37.41Z" fill="#F2F2F1"/>
<path d="M43 37.42H42V38.42H43V37.42Z" fill="#F2F2F1"/>
<path d="M44 37.43H43V38.43H44V37.43Z" fill="#F2F2F1"/>
<path d="M45 37.44H44V38.44H45V37.44Z" fill="#F2F2F1"/>
<path d="M46 37.45H45V38.45H46V37.45Z" fill="#F2F2F1"/>
<path d="M47 37.46H46V38.46H47V37.46Z" fill="#F2F2F1"/>
<path d="M48 37.47H47V38.47H48V37.47Z" fill="#F2F2F1"/>
<path d="M49 37.48H48V38.48H49V37.48Z" fill="#F2F2F1"/>
<path d="M50 37.49H49V38.49H50V37.49Z" fill="#F1F1F0"/>
<path d="M51 37.5H50V38.5H51V37.5Z" fill="white"/>
<path d="M52 37.51H51V38.51H52V37.51Z" fill="#B4B4B3"/>
<path d="M53 37.52H52V38.52H53V37.52Z" fill="#131316"/>
<path d="M54 37.53H53V38.53H54V37.53Z" fill="#272729"/>
<path d="M55 37.54H54V38.54H55V37.54Z" fill="#4A4A4D"/>
<path d="M56 37.55H55V38.55H56V37.55Z" fill="#646466"/>
<path d="M57 37.56H56V38.56H57V37.56Z" fill="#5F5F61"/>
<path d="M58 37.57H57V38.57H58V37.57Z" fill="#3B3B3D"/>
<path d="M59 37.58H58V38.58H59V37.58Z" fill="#262628"/>
<path d="M60 37.59H59V38.59H60V37.59Z" fill="#3C3C3E"/>
<path d="M61 37.6H60V38.6H61V37.6Z" fill="#4C4C4E"/>
<path d="M62 37.61H61V38.61H62V37.61Z" fill="#48484A"/>
<path d="M63 37.62H62V38.62H63V37.62Z" fill="#48484A"/>
<path d="M64 37.63H63V38.63H64V37.63Z" fill="#48484A"/>
<path d="M65 37.64H64V38.64H65V37.64Z" fill="#48484A"/>
<path d="M66 37.65H65V38.65H66V37.65Z" fill="#48484A"/>
<path d="M67 37.66H66V38.66H67V37.66Z" fill="#48484A"/>
<path d="M68 37.67H67V38.67H68V37.67Z" fill="#48484A"/>
<path d="M69 37.68H68V38.68H69V37.68Z" fill="#48484A"/>
<path d="M70 37.69H69V38.69H70V37.69Z" fill="#48484A"/>
<path d="M71 37.7H70V38.7H71V37.7Z" fill="#48484A"/>
<path d="M72 37.71H71V38.71H72V37.71Z" fill="#4A4A4A" fill-opacity="0.176471"/>
<path d="M33 38.32H32V39.32H33V38.32Z" fill="#F2F2F1" fill-opacity="0.784314"/>
<path d="M34 38.33H33V39.33H34V38.33Z" fill="#F2F2F1"/>
<path d="M35 38.34H34V39.34H35V38.34Z" fill="#F2F2F1"/>
<path d="M36 38.35H35V39.35H36V38.35Z" fill="#F2F2F1"/>
<path d="M37 38.36H36V39.36H37V38.36Z" fill="#F2F2F1"/>
<path d="M38 38.37H37V39.37H38V38.37Z" fill="#F2F2F1"/>
<path d="M39 38.38H38V39.38H39V38.38Z" fill="#F2F2F1"/>
<path d="M40 38.39H39V39.39H40V38.39Z" fill="#F2F2F1"/>
<path d="M41 38.4H40V39.4H41V38.4Z" fill="#F2F2F1"/>
<path d="M42 38.41H41V39.41H42V38.41Z" fill="#F2F2F1"/>
<path d="M43 38.42H42V39.42H43V38.42Z" fill="#F2F2F1"/>
<path d="M44 38.43H43V39.43H44V38.43Z" fill="#F2F2F1"/>
<path d="M45 38.44H44V39.44H45V38.44Z" fill="#F2F2F1"/>
<path d="M46 38.45H45V39.45H46V38.45Z" fill="#F2F2F1"/>
<path d="M47 38.46H46V39.46H47V38.46Z" fill="#F2F2F1"/>
<path d="M48 38.47H47V39.47H48V38.47Z" fill="#F2F2F1"/>
<path d="M49 38.48H48V39.48H49V38.48Z" fill="#F2F2F1"/>
<path d="M50 38.49H49V39.49H50V38.49Z" fill="#F2F2F1"/>
<path d="M51 38.5H50V39.5H51V38.5Z" fill="white"/>
<path d="M52 38.51H51V39.51H52V38.51Z" fill="#C5C5C5"/>
<path d="M53 38.52H52V39.52H53V38.52Z" fill="#535354"/>
<path d="M54 38.53H53V39.53H54V38.53Z" fill="#A9A9AA"/>
<path d="M55 38.54H54V39.54H55V38.54Z" fill="#E5E5E5"/>
<path d="M56 38.55H55V39.55H56V38.55Z" fill="#F9F9F9"/>
<path d="M57 38.56H56V39.56H57V38.56Z" fill="#F7F7F7"/>
<path d="M58 38.57H57V39.57H58V38.57Z" fill="#D3D3D2"/>
<path d="M59 38.58H58V39.58H59V38.58Z" fill="#939394"/>
<path d="M60 38.59H59V39.59H60V38.59Z" fill="#424244"/>
<path d="M61 38.6H60V39.6H61V38.6Z" fill="#343436"/>
<path d="M62 38.61H61V39.61H62V38.61Z" fill="#4B4B4D"/>
<path d="M63 38.62H62V39.62H63V38.62Z" fill="#48484A"/>
<path d="M64 38.63H63V39.63H64V38.63Z" fill="#48484A"/>
<path d="M65 38.64H64V39.64H65V38.64Z" fill="#48484A"/>
<path d="M66 38.65H65V39.65H66V38.65Z" fill="#48484A"/>
<path d="M67 38.66H66V39.66H67V38.66Z" fill="#48484A"/>
<path d="M68 38.67H67V39.67H68V38.67Z" fill="#48484A"/>
<path d="M69 38.68H68V39.68H69V38.68Z" fill="#48484A"/>
<path d="M70 38.69H69V39.69H70V38.69Z" fill="#48484A"/>
<path d="M71 38.7H70V39.7H71V38.7Z" fill="#48484A" fill-opacity="0.992157"/>
<path d="M72 38.71H71V39.71H72V38.71Z" fill="#474749" fill-opacity="0.560784"/>
<path d="M73 38.72H72V39.72H73V38.72Z" fill="#48484A" fill-opacity="0.501961"/>
<path d="M74 38.73H73V39.73H74V38.73Z" fill="#48484B" fill-opacity="0.415686"/>
<path d="M75 38.74H74V39.74H75V38.74Z" fill="#46464B" fill-opacity="0.2"/>
<path d="M33 39.32H32V40.32H33V39.32Z" fill="#F2F2F1" fill-opacity="0.870588"/>
<path d="M34 39.33H33V40.33H34V39.33Z" fill="#F2F2F1"/>
<path d="M35 39.34H34V40.34H35V39.34Z" fill="#F2F2F1"/>
<path d="M36 39.35H35V40.35H36V39.35Z" fill="#F2F2F1"/>
<path d="M37 39.36H36V40.36H37V39.36Z" fill="#F2F2F1"/>
<path d="M38 39.37H37V40.37H38V39.37Z" fill="#F2F2F1"/>
<path d="M39 39.38H38V40.38H39V39.38Z" fill="#F2F2F1"/>
<path d="M40 39.39H39V40.39H40V39.39Z" fill="#F2F2F1"/>
<path d="M41 39.4H40V40.4H41V39.4Z" fill="#F2F2F1"/>
<path d="M42 39.41H41V40.41H42V39.41Z" fill="#F2F2F1"/>
<path d="M43 39.42H42V40.42H43V39.42Z" fill="#F2F2F1"/>
<path d="M44 39.43H43V40.43H44V39.43Z" fill="#F2F2F1"/>
<path d="M45 39.44H44V40.44H45V39.44Z" fill="#F2F2F1"/>
<path d="M46 39.45H45V40.45H46V39.45Z" fill="#F2F2F1"/>
<path d="M47 39.46H46V40.46H47V39.46Z" fill="#F2F2F1"/>
<path d="M48 39.47H47V40.47H48V39.47Z" fill="#F2F2F1"/>
<path d="M49 39.48H48V40.48H49V39.48Z" fill="#F2F2F1"/>
<path d="M50 39.49H49V40.49H50V39.49Z" fill="#F2F2F1"/>
<path d="M51 39.5H50V40.5H51V39.5Z" fill="#F6F6F5"/>
<path d="M52 39.51H51V40.51H52V39.51Z" fill="#E5E5E4"/>
<path d="M53 39.52H52V40.52H53V39.52Z" fill="#F5F5F4"/>
<path d="M54 39.53H53V40.53H54V39.53Z" fill="white"/>
<path d="M55 39.54H54V40.54H55V39.54Z" fill="white"/>
<path d="M56 39.55H55V40.55H56V39.55Z" fill="#F9F9F8"/>
<path d="M57 39.56H56V40.56H57V39.56Z" fill="#FBFBFA"/>
<path d="M58 39.57H57V40.57H58V39.57Z" fill="white"/>
<path d="M59 39.58H58V40.58H59V39.58Z" fill="white"/>
<path d="M60 39.59H59V40.59H60V39.59Z" fill="#D5D5D5"/>
<path d="M61 39.6H60V40.6H61V39.6Z" fill="#38383A"/>
<path d="M62 39.61H61V40.61H62V39.61Z" fill="#363638"/>
<path d="M63 39.62H62V40.62H63V39.62Z" fill="#4B4B4D"/>
<path d="M64 39.63H63V40.63H64V39.63Z" fill="#48484A"/>
<path d="M65 39.64H64V40.64H65V39.64Z" fill="#48484A"/>
<path d="M66 39.65H65V40.65H66V39.65Z" fill="#48484A"/>
<path d="M67 39.66H66V40.66H67V39.66Z" fill="#48484A"/>
<path d="M68 39.67H67V40.67H68V39.67Z" fill="#48484A"/>
<path d="M69 39.68H68V40.68H69V39.68Z" fill="#48484A"/>
<path d="M70 39.69H69V40.69H70V39.69Z" fill="#48484A"/>
<path d="M71 39.7H70V40.7H71V39.7Z" fill="#48484A" fill-opacity="0.996078"/>
<path d="M72 39.71H71V40.71H72V39.71Z" fill="#48484A"/>
<path d="M73 39.72H72V40.72H73V39.72Z" fill="#48484A"/>
<path d="M74 39.73H73V40.73H74V39.73Z" fill="#48484A"/>
<path d="M75 39.74H74V40.74H75V39.74Z" fill="#48484A"/>
<path d="M76 39.75H75V40.75H76V39.75Z" fill="#49494B" fill-opacity="0.509804"/>
<path d="M33 40.32H32V41.32H33V40.32Z" fill="#F1F1F1" fill-opacity="0.807843"/>
<path d="M34 40.33H33V41.33H34V40.33Z" fill="#F2F2F1"/>
<path d="M35 40.34H34V41.34H35V40.34Z" fill="#F2F2F1"/>
<path d="M36 40.35H35V41.35H36V40.35Z" fill="#F2F2F1"/>
<path d="M37 40.36H36V41.36H37V40.36Z" fill="#F2F2F1"/>
<path d="M38 40.37H37V41.37H38V40.37Z" fill="#F2F2F1"/>
<path d="M39 40.38H38V41.38H39V40.38Z" fill="#F2F2F1"/>
<path d="M40 40.39H39V41.39H40V40.39Z" fill="#F2F2F1"/>
<path d="M41 40.4H40V41.4H41V40.4Z" fill="#F2F2F1"/>
<path d="M42 40.41H41V41.41H42V40.41Z" fill="#F2F2F1"/>
<path d="M43 40.42H42V41.42H43V40.42Z" fill="#F2F2F1"/>
<path d="M44 40.43H43V41.43H44V40.43Z" fill="#F2F2F1"/>
<path d="M45 40.44H44V41.44H45V40.44Z" fill="#F2F2F1"/>
<path d="M46 40.45H45V41.45H46V40.45Z" fill="#F2F2F1"/>
<path d="M47 40.46H46V41.46H47V40.46Z" fill="#F2F2F1"/>
<path d="M48 40.47H47V41.47H48V40.47Z" fill="#F2F2F1"/>
<path d="M49 40.48H48V41.48H49V40.48Z" fill="#F2F2F1"/>
<path d="M50 40.49H49V41.49H50V40.49Z" fill="#F2F2F1"/>
<path d="M51 40.5H50V41.5H51V40.5Z" fill="#F0F0EF"/>
<path d="M52 40.51H51V41.51H52V40.51Z" fill="#F9F9F8"/>
<path d="M53 40.52H52V41.52H53V40.52Z" fill="#FDFDFC"/>
<path d="M54 40.53H53V41.53H54V40.53Z" fill="#F0F0EF"/>
<path d="M55 40.54H54V41.54H55V40.54Z" fill="#F2F2F1"/>
<path d="M56 40.55H55V41.55H56V40.55Z" fill="#F2F2F1"/>
<path d="M57 40.56H56V41.56H57V40.56Z" fill="#F2F2F1"/>
<path d="M58 40.57H57V41.57H58V40.57Z" fill="#F1F1F0"/>
<path d="M59 40.58H58V41.58H59V40.58Z" fill="#F4F4F2"/>
<path d="M60 40.59H59V41.59H60V40.59Z" fill="white"/>
<path d="M61 40.6H60V41.6H61V40.6Z" fill="#CCCCCC"/>
<path d="M62 40.61H61V41.61H62V40.61Z" fill="#38383A"/>
<path d="M63 40.62H62V41.62H63V40.62Z" fill="#424244"/>
<path d="M64 40.63H63V41.63H64V40.63Z" fill="#48484A"/>
<path d="M65 40.64H64V41.64H65V40.64Z" fill="#48484A"/>
<path d="M66 40.65H65V41.65H66V40.65Z" fill="#48484A"/>
<path d="M67 40.66H66V41.66H67V40.66Z" fill="#48484A"/>
<path d="M68 40.67H67V41.67H68V40.67Z" fill="#48484A"/>
<path d="M69 40.68H68V41.68H69V40.68Z" fill="#48484A"/>
<path d="M70 40.69H69V41.69H70V40.69Z" fill="#48484A"/>
<path d="M71 40.7H70V41.7H71V40.7Z" fill="#48484A"/>
<path d="M72 40.71H71V41.71H72V40.71Z" fill="#48484A"/>
<path d="M73 40.72H72V41.72H73V40.72Z" fill="#48484A"/>
<path d="M74 40.73H73V41.73H74V40.73Z" fill="#48484A"/>
<path d="M75 40.74H74V41.74H75V40.74Z" fill="#48484A"/>
<path d="M76 40.75H75V41.75H76V40.75Z" fill="#48484A"/>
<path d="M77 40.76H76V41.76H77V40.76Z" fill="#48484A" fill-opacity="0.611765"/>
<path d="M30 41.29H29V42.29H30V41.29Z" fill="#EEEEEE" fill-opacity="0.117647"/>
<path d="M31 41.3H30V42.3H31V41.3Z" fill="#F4F4F0" fill-opacity="0.262745"/>
<path d="M32 41.31H31V42.31H32V41.31Z" fill="#F3F3EF" fill-opacity="0.254902"/>
<path d="M33 41.32H32V42.32H33V41.32Z" fill="#F2F2F1" fill-opacity="0.788235"/>
<path d="M34 41.33H33V42.33H34V41.33Z" fill="#F2F2F1"/>
<path d="M35 41.34H34V42.34H35V41.34Z" fill="#F2F2F1"/>
<path d="M36 41.35H35V42.35H36V41.35Z" fill="#F2F2F1"/>
<path d="M37 41.36H36V42.36H37V41.36Z" fill="#F2F2F1"/>
<path d="M38 41.37H37V42.37H38V41.37Z" fill="#F2F2F1"/>
<path d="M39 41.38H38V42.38H39V41.38Z" fill="#F2F2F1"/>
<path d="M40 41.39H39V42.39H40V41.39Z" fill="#F2F2F1"/>
<path d="M41 41.4H40V42.4H41V41.4Z" fill="#F2F2F1"/>
<path d="M42 41.41H41V42.41H42V41.41Z" fill="#F2F2F1"/>
<path d="M43 41.42H42V42.42H43V41.42Z" fill="#F2F2F1"/>
<path d="M44 41.43H43V42.43H44V41.43Z" fill="#F2F2F1"/>
<path d="M45 41.44H44V42.44H45V41.44Z" fill="#F2F2F1"/>
<path d="M46 41.45H45V42.45H46V41.45Z" fill="#F2F2F1"/>
<path d="M47 41.46H46V42.46H47V41.46Z" fill="#F2F2F1"/>
<path d="M48 41.47H47V42.47H48V41.47Z" fill="#F2F2F1"/>
<path d="M49 41.48H48V42.48H49V41.48Z" fill="#F2F2F1"/>
<path d="M50 41.49H49V42.49H50V41.49Z" fill="#F2F2F1"/>
<path d="M51 41.5H50V42.5H51V41.5Z" fill="#F2F2F1"/>
<path d="M52 41.51H51V42.51H52V41.51Z" fill="#F2F2F1"/>
<path d="M53 41.52H52V42.52H53V41.52Z" fill="#F2F2F1"/>
<path d="M54 41.53H53V42.53H54V41.53Z" fill="#F2F2F1"/>
<path d="M55 41.54H54V42.54H55V41.54Z" fill="#F2F2F1"/>
<path d="M56 41.55H55V42.55H56V41.55Z" fill="#F2F2F1"/>
<path d="M57 41.56H56V42.56H57V41.56Z" fill="#F2F2F1"/>
<path d="M58 41.57H57V42.57H58V41.57Z" fill="#F2F2F1"/>
<path d="M59 41.58H58V42.58H59V41.58Z" fill="#F1F1F0"/>
<path d="M60 41.59H59V42.59H60V41.59Z" fill="#F6F6F5"/>
<path d="M61 41.6H60V42.6H61V41.6Z" fill="white"/>
<path d="M62 41.61H61V42.61H62V41.61Z" fill="#7F7F80"/>
<path d="M63 41.62H62V42.62H63V41.62Z" fill="#2A2A2C"/>
<path d="M64 41.63H63V42.63H64V41.63Z" fill="#48484A"/>
<path d="M65 41.64H64V42.64H65V41.64Z" fill="#48484A"/>
<path d="M66 41.65H65V42.65H66V41.65Z" fill="#48484A"/>
<path d="M67 41.66H66V42.66H67V41.66Z" fill="#48484A"/>
<path d="M68 41.67H67V42.67H68V41.67Z" fill="#48484A"/>
<path d="M69 41.68H68V42.68H69V41.68Z" fill="#48484A"/>
<path d="M70 41.69H69V42.69H70V41.69Z" fill="#48484A"/>
<path d="M71 41.7H70V42.7H71V41.7Z" fill="#48484A"/>
<path d="M72 41.71H71V42.71H72V41.71Z" fill="#48484A"/>
<path d="M73 41.72H72V42.72H73V41.72Z" fill="#48484A"/>
<path d="M74 41.73H73V42.73H74V41.73Z" fill="#48484A"/>
<path d="M75 41.74H74V42.74H75V41.74Z" fill="#48484A"/>
<path d="M76 41.75H75V42.75H76V41.75Z" fill="#48484A"/>
<path d="M77 41.76H76V42.76H77V41.76Z" fill="#48484A"/>
<path d="M78 41.77H77V42.77H78V41.77Z" fill="#47474A" fill-opacity="0.32549"/>
<path d="M28 42.27H27V43.27H28V42.27Z" fill="#F1F1F1" fill-opacity="0.364706"/>
<path d="M29 42.28H28V43.28H29V42.28Z" fill="#F2F2F1" fill-opacity="0.784314"/>
<path d="M30 42.29H29V43.29H30V42.29Z" fill="#F2F2F1"/>
<path d="M31 42.3H30V43.3H31V42.3Z" fill="#F2F2F1"/>
<path d="M32 42.31H31V43.31H32V42.31Z" fill="#F2F2F1"/>
<path d="M33 42.32H32V43.32H33V42.32Z" fill="#F2F2F1"/>
<path d="M34 42.33H33V43.33H34V42.33Z" fill="#F2F2F1"/>
<path d="M35 42.34H34V43.34H35V42.34Z" fill="#F2F2F1"/>
<path d="M36 42.35H35V43.35H36V42.35Z" fill="#F2F2F1"/>
<path d="M37 42.36H36V43.36H37V42.36Z" fill="#F2F2F1"/>
<path d="M38 42.37H37V43.37H38V42.37Z" fill="#F2F2F1"/>
<path d="M39 42.38H38V43.38H39V42.38Z" fill="#F2F2F1"/>
<path d="M40 42.39H39V43.39H40V42.39Z" fill="#F2F2F1"/>
<path d="M41 42.4H40V43.4H41V42.4Z" fill="#F2F2F1"/>
<path d="M42 42.41H41V43.41H42V42.41Z" fill="#F2F2F1"/>
<path d="M43 42.42H42V43.42H43V42.42Z" fill="#F2F2F1"/>
<path d="M44 42.43H43V43.43H44V42.43Z" fill="#F2F2F1"/>
<path d="M45 42.44H44V43.44H45V42.44Z" fill="#F2F2F1"/>
<path d="M46 42.45H45V43.45H46V42.45Z" fill="#F2F2F1"/>
<path d="M47 42.46H46V43.46H47V42.46Z" fill="#F2F2F1"/>
<path d="M48 42.47H47V43.47H48V42.47Z" fill="#F2F2F1"/>
<path d="M49 42.48H48V43.48H49V42.48Z" fill="#F2F2F1"/>
<path d="M50 42.49H49V43.49H50V42.49Z" fill="#F2F2F1"/>
<path d="M51 42.5H50V43.5H51V42.5Z" fill="#F2F2F1"/>
<path d="M52 42.51H51V43.51H52V42.51Z" fill="#F2F2F1"/>
<path d="M53 42.52H52V43.52H53V42.52Z" fill="#F2F2F1"/>
<path d="M54 42.53H53V43.53H54V42.53Z" fill="#F2F2F1"/>
<path d="M55 42.54H54V43.54H55V42.54Z" fill="#F2F2F1"/>
<path d="M56 42.55H55V43.55H56V42.55Z" fill="#F2F2F1"/>
<path d="M57 42.56H56V43.56H57V42.56Z" fill="#F2F2F1"/>
<path d="M58 42.57H57V43.57H58V42.57Z" fill="#F2F2F1"/>
<path d="M59 42.58H58V43.58H59V42.58Z" fill="#F2F2F1"/>
<path d="M60 42.59H59V43.59H60V42.59Z" fill="#F1F1F0"/>
<path d="M61 42.6H60V43.6H61V42.6Z" fill="white"/>
<path d="M62 42.61H61V43.61H62V42.61Z" fill="#A8A8A8"/>
<path d="M63 42.62H62V43.62H63V42.62Z" fill="#29292B"/>
<path d="M64 42.63H63V43.63H64V42.63Z" fill="#474749"/>
<path d="M65 42.64H64V43.64H65V42.64Z" fill="#48484A"/>
<path d="M66 42.65H65V43.65H66V42.65Z" fill="#48484A"/>
<path d="M67 42.66H66V43.66H67V42.66Z" fill="#48484A"/>
<path d="M68 42.67H67V43.67H68V42.67Z" fill="#48484A"/>
<path d="M69 42.68H68V43.68H69V42.68Z" fill="#48484A"/>
<path d="M70 42.69H69V43.69H70V42.69Z" fill="#48484A"/>
<path d="M71 42.7H70V43.7H71V42.7Z" fill="#48484A"/>
<path d="M72 42.71H71V43.71H72V42.71Z" fill="#48484A"/>
<path d="M73 42.72H72V43.72H73V42.72Z" fill="#48484A"/>
<path d="M74 42.73H73V43.73H74V42.73Z" fill="#48484A"/>
<path d="M75 42.74H74V43.74H75V42.74Z" fill="#48484A"/>
<path d="M76 42.75H75V43.75H76V42.75Z" fill="#48484A"/>
<path d="M77 42.76H76V43.76H77V42.76Z" fill="#48484A"/>
<path d="M78 42.77H77V43.77H78V42.77Z" fill="#48484A" fill-opacity="0.835294"/>
<path d="M26 43.25H25V44.25H26V43.25Z" fill="#F3F3EF" fill-opacity="0.25098"/>
<path d="M27 43.26H26V44.26H27V43.26Z" fill="#F2F2F1" fill-opacity="0.835294"/>
<path d="M28 43.27H27V44.27H28V43.27Z" fill="#F2F2F1"/>
<path d="M29 43.28H28V44.28H29V43.28Z" fill="#F2F2F1"/>
<path d="M30 43.29H29V44.29H30V43.29Z" fill="#F2F2F1"/>
<path d="M31 43.3H30V44.3H31V43.3Z" fill="#F2F2F1"/>
<path d="M32 43.31H31V44.31H32V43.31Z" fill="#F2F2F1"/>
<path d="M33 43.32H32V44.32H33V43.32Z" fill="#F2F2F1"/>
<path d="M34 43.33H33V44.33H34V43.33Z" fill="#F2F2F1"/>
<path d="M35 43.34H34V44.34H35V43.34Z" fill="#F2F2F1"/>
<path d="M36 43.35H35V44.35H36V43.35Z" fill="#F2F2F1"/>
<path d="M37 43.36H36V44.36H37V43.36Z" fill="#F2F2F1"/>
<path d="M38 43.37H37V44.37H38V43.37Z" fill="#F2F2F1"/>
<path d="M39 43.38H38V44.38H39V43.38Z" fill="#F2F2F1"/>
<path d="M40 43.39H39V44.39H40V43.39Z" fill="#F2F2F1"/>
<path d="M41 43.4H40V44.4H41V43.4Z" fill="#F2F2F1"/>
<path d="M42 43.41H41V44.41H42V43.41Z" fill="#F2F2F1"/>
<path d="M43 43.42H42V44.42H43V43.42Z" fill="#F2F2F1"/>
<path d="M44 43.43H43V44.43H44V43.43Z" fill="#F2F2F1"/>
<path d="M45 43.44H44V44.44H45V43.44Z" fill="#F2F2F1"/>
<path d="M46 43.45H45V44.45H46V43.45Z" fill="#F2F2F1"/>
<path d="M47 43.46H46V44.46H47V43.46Z" fill="#F2F2F1"/>
<path d="M48 43.47H47V44.47H48V43.47Z" fill="#F2F2F1"/>
<path d="M49 43.48H48V44.48H49V43.48Z" fill="#F2F2F1"/>
<path d="M50 43.49H49V44.49H50V43.49Z" fill="#F2F2F1"/>
<path d="M51 43.5H50V44.5H51V43.5Z" fill="#F2F2F1"/>
<path d="M52 43.51H51V44.51H52V43.51Z" fill="#F2F2F1"/>
<path d="M53 43.52H52V44.52H53V43.52Z" fill="#F2F2F1"/>
<path d="M54 43.53H53V44.53H54V43.53Z" fill="#F2F2F1"/>
<path d="M55 43.54H54V44.54H55V43.54Z" fill="#F2F2F1"/>
<path d="M56 43.55H55V44.55H56V43.55Z" fill="#F2F2F1"/>
<path d="M57 43.56H56V44.56H57V43.56Z" fill="#F2F2F1"/>
<path d="M58 43.57H57V44.57H58V43.57Z" fill="#F2F2F1"/>
<path d="M59 43.58H58V44.58H59V43.58Z" fill="#F2F2F1"/>
<path d="M60 43.59H59V44.59H60V43.59Z" fill="#F2F2F1"/>
<path d="M61 43.6H60V44.6H61V43.6Z" fill="white"/>
<path d="M62 43.61H61V44.61H62V43.61Z" fill="#C1C1C1"/>
<path d="M63 43.62H62V44.62H63V43.62Z" fill="#333335"/>
<path d="M64 43.63H63V44.63H64V43.63Z" fill="#464648"/>
<path d="M65 43.64H64V44.64H65V43.64Z" fill="#48484A"/>
<path d="M66 43.65H65V44.65H66V43.65Z" fill="#48484A"/>
<path d="M67 43.66H66V44.66H67V43.66Z" fill="#48484A"/>
<path d="M68 43.67H67V44.67H68V43.67Z" fill="#48484A"/>
<path d="M69 43.68H68V44.68H69V43.68Z" fill="#48484A"/>
<path d="M70 43.69H69V44.69H70V43.69Z" fill="#48484A"/>
<path d="M71 43.7H70V44.7H71V43.7Z" fill="#48484A"/>
<path d="M72 43.71H71V44.71H72V43.71Z" fill="#48484A"/>
<path d="M73 43.72H72V44.72H73V43.72Z" fill="#48484A"/>
<path d="M74 43.73H73V44.73H74V43.73Z" fill="#48484A"/>
<path d="M75 43.74H74V44.74H75V43.74Z" fill="#48484A"/>
<path d="M76 43.75H75V44.75H76V43.75Z" fill="#48484A"/>
<path d="M77 43.76H76V44.76H77V43.76Z" fill="#48484A"/>
<path d="M78 43.77H77V44.77H78V43.77Z" fill="#49494A" fill-opacity="0.909804"/>
<path d="M25 44.24H24V45.24H25V44.24Z" fill="#F3F3F0" fill-opacity="0.258824"/>
<path d="M26 44.25H25V45.25H26V44.25Z" fill="#F2F2F1"/>
<path d="M27 44.26H26V45.26H27V44.26Z" fill="#F2F2F1"/>
<path d="M28 44.27H27V45.27H28V44.27Z" fill="#F2F2F1"/>
<path d="M29 44.28H28V45.28H29V44.28Z" fill="#F2F2F1"/>
<path d="M30 44.29H29V45.29H30V44.29Z" fill="#F2F2F1"/>
<path d="M31 44.3H30V45.3H31V44.3Z" fill="#F2F2F1"/>
<path d="M32 44.31H31V45.31H32V44.31Z" fill="#F2F2F1"/>
<path d="M33 44.32H32V45.32H33V44.32Z" fill="#F2F2F1"/>
<path d="M34 44.33H33V45.33H34V44.33Z" fill="#F2F2F1"/>
<path d="M35 44.34H34V45.34H35V44.34Z" fill="#F2F2F1"/>
<path d="M36 44.35H35V45.35H36V44.35Z" fill="#F2F2F1"/>
<path d="M37 44.36H36V45.36H37V44.36Z" fill="#F2F2F1"/>
<path d="M38 44.37H37V45.37H38V44.37Z" fill="#F2F2F1"/>
<path d="M39 44.38H38V45.38H39V44.38Z" fill="#F2F2F1"/>
<path d="M40 44.39H39V45.39H40V44.39Z" fill="#F2F2F1"/>
<path d="M41 44.4H40V45.4H41V44.4Z" fill="#F2F2F1"/>
<path d="M42 44.41H41V45.41H42V44.41Z" fill="#F2F2F1"/>
<path d="M43 44.42H42V45.42H43V44.42Z" fill="#F2F2F1"/>
<path d="M44 44.43H43V45.43H44V44.43Z" fill="#F2F2F1"/>
<path d="M45 44.44H44V45.44H45V44.44Z" fill="#F2F2F1"/>
<path d="M46 44.45H45V45.45H46V44.45Z" fill="#F2F2F1"/>
<path d="M47 44.46H46V45.46H47V44.46Z" fill="#F2F2F1"/>
<path d="M48 44.47H47V45.47H48V44.47Z" fill="#F2F2F1"/>
<path d="M49 44.48H48V45.48H49V44.48Z" fill="#F2F2F1"/>
<path d="M50 44.49H49V45.49H50V44.49Z" fill="#F2F2F1"/>
<path d="M51 44.5H50V45.5H51V44.5Z" fill="#F2F2F1"/>
<path d="M52 44.51H51V45.51H52V44.51Z" fill="#F2F2F1"/>
<path d="M53 44.52H52V45.52H53V44.52Z" fill="#F2F2F1"/>
<path d="M54 44.53H53V45.53H54V44.53Z" fill="#F2F2F1"/>
<path d="M55 44.54H54V45.54H55V44.54Z" fill="#F2F2F1"/>
<path d="M56 44.55H55V45.55H56V44.55Z" fill="#F2F2F1"/>
<path d="M57 44.56H56V45.56H57V44.56Z" fill="#F2F2F1"/>
<path d="M58 44.57H57V45.57H58V44.57Z" fill="#F2F2F1"/>
<path d="M59 44.58H58V45.58H59V44.58Z" fill="#F2F2F1"/>
<path d="M60 44.59H59V45.59H60V44.59Z" fill="#F2F2F1"/>
<path d="M61 44.6H60V45.6H61V44.6Z" fill="white"/>
<path d="M62 44.61H61V45.61H62V44.61Z" fill="#AEAEAE"/>
<path d="M63 44.62H62V45.62H63V44.62Z" fill="#18181A"/>
<path d="M64 44.63H63V45.63H64V44.63Z" fill="#333336"/>
<path d="M65 44.64H64V45.64H65V44.64Z" fill="#3D3D3F"/>
<path d="M66 44.65H65V45.65H66V44.65Z" fill="#454547"/>
<path d="M67 44.66H66V45.66H67V44.66Z" fill="#49494B"/>
<path d="M68 44.67H67V45.67H68V44.67Z" fill="#48484A"/>
<path d="M69 44.68H68V45.68H69V44.68Z" fill="#48484A"/>
<path d="M70 44.69H69V45.69H70V44.69Z" fill="#48484A"/>
<path d="M71 44.7H70V45.7H71V44.7Z" fill="#48484A"/>
<path d="M72 44.71H71V45.71H72V44.71Z" fill="#48484A"/>
<path d="M73 44.72H72V45.72H73V44.72Z" fill="#48484A"/>
<path d="M74 44.73H73V45.73H74V44.73Z" fill="#48484A"/>
<path d="M75 44.74H74V45.74H75V44.74Z" fill="#48484A"/>
<path d="M76 44.75H75V45.75H76V44.75Z" fill="#48484A"/>
<path d="M77 44.76H76V45.76H77V44.76Z" fill="#48484A"/>
<path d="M78 44.77H77V45.77H78V44.77Z" fill="#48484A" fill-opacity="0.917647"/>
<path d="M24 45.23H23V46.23H24V45.23Z" fill="#EEEEEE" fill-opacity="0.117647"/>
<path d="M25 45.24H24V46.24H25V45.24Z" fill="#F2F2F1"/>
<path d="M26 45.25H25V46.25H26V45.25Z" fill="#F2F2F1"/>
<path d="M27 45.26H26V46.26H27V45.26Z" fill="#F2F2F1"/>
<path d="M28 45.27H27V46.27H28V45.27Z" fill="#F2F2F1"/>
<path d="M29 45.28H28V46.28H29V45.28Z" fill="#F2F2F1"/>
<path d="M30 45.29H29V46.29H30V45.29Z" fill="#F2F2F1"/>
<path d="M31 45.3H30V46.3H31V45.3Z" fill="#F2F2F1"/>
<path d="M32 45.31H31V46.31H32V45.31Z" fill="#F2F2F1"/>
<path d="M33 45.32H32V46.32H33V45.32Z" fill="#F2F2F1"/>
<path d="M34 45.33H33V46.33H34V45.33Z" fill="#F2F2F1"/>
<path d="M35 45.34H34V46.34H35V45.34Z" fill="#F2F2F1"/>
<path d="M36 45.35H35V46.35H36V45.35Z" fill="#F2F2F1"/>
<path d="M37 45.36H36V46.36H37V45.36Z" fill="#F2F2F1"/>
<path d="M38 45.37H37V46.37H38V45.37Z" fill="#F2F2F1"/>
<path d="M39 45.38H38V46.38H39V45.38Z" fill="#F2F2F1"/>
<path d="M40 45.39H39V46.39H40V45.39Z" fill="#F2F2F1"/>
<path d="M41 45.4H40V46.4H41V45.4Z" fill="#F2F2F1"/>
<path d="M42 45.41H41V46.41H42V45.41Z" fill="#F2F2F1"/>
<path d="M43 45.42H42V46.42H43V45.42Z" fill="#F2F2F1"/>
<path d="M44 45.43H43V46.43H44V45.43Z" fill="#F2F2F1"/>
<path d="M45 45.44H44V46.44H45V45.44Z" fill="#F2F2F1"/>
<path d="M46 45.45H45V46.45H46V45.45Z" fill="#F2F2F1"/>
<path d="M47 45.46H46V46.46H47V45.46Z" fill="#F2F2F1"/>
<path d="M48 45.47H47V46.47H48V45.47Z" fill="#F2F2F1"/>
<path d="M49 45.48H48V46.48H49V45.48Z" fill="#F2F2F1"/>
<path d="M50 45.49H49V46.49H50V45.49Z" fill="#F2F2F1"/>
<path d="M51 45.5H50V46.5H51V45.5Z" fill="#F2F2F1"/>
<path d="M52 45.51H51V46.51H52V45.51Z" fill="#F2F2F1"/>
<path d="M53 45.52H52V46.52H53V45.52Z" fill="#F2F2F1"/>
<path d="M54 45.53H53V46.53H54V45.53Z" fill="#F2F2F1"/>
<path d="M55 45.54H54V46.54H55V45.54Z" fill="#F2F2F1"/>
<path d="M56 45.55H55V46.55H56V45.55Z" fill="#F2F2F1"/>
<path d="M57 45.56H56V46.56H57V45.56Z" fill="#F2F2F1"/>
<path d="M58 45.57H57V46.57H58V45.57Z" fill="#F2F2F1"/>
<path d="M59 45.58H58V46.58H59V45.58Z" fill="#F2F2F1"/>
<path d="M60 45.59H59V46.59H60V45.59Z" fill="#F2F2F1"/>
<path d="M61 45.6H60V46.6H61V45.6Z" fill="#FEFEFE"/>
<path d="M62 45.61H61V46.61H62V45.61Z" fill="#A0A0A1"/>
<path d="M63 45.62H62V46.62H63V45.62Z" fill="#4A4A4C"/>
<path d="M64 45.63H63V46.63H64V45.63Z" fill="#606062"/>
<path d="M65 45.64H64V46.64H65V45.64Z" fill="#4A4A4C"/>
<path d="M66 45.65H65V46.65H66V45.65Z" fill="#313133"/>
<path d="M67 45.66H66V46.66H67V45.66Z" fill="#333336"/>
<path d="M68 45.67H67V46.67H68V45.67Z" fill="#4A4A4C"/>
<path d="M69 45.68H68V46.68H69V45.68Z" fill="#49494B"/>
<path d="M70 45.69H69V46.69H70V45.69Z" fill="#48484A"/>
<path d="M71 45.7H70V46.7H71V45.7Z" fill="#48484A"/>
<path d="M72 45.71H71V46.71H72V45.71Z" fill="#48484A"/>
<path d="M73 45.72H72V46.72H73V45.72Z" fill="#48484A"/>
<path d="M74 45.73H73V46.73H74V45.73Z" fill="#48484A"/>
<path d="M75 45.74H74V46.74H75V45.74Z" fill="#48484A"/>
<path d="M76 45.75H75V46.75H76V45.75Z" fill="#48484A"/>
<path d="M77 45.76H76V46.76H77V45.76Z" fill="#48484A"/>
<path d="M78 45.77H77V46.77H78V45.77Z" fill="#484849" fill-opacity="0.898039"/>
<path d="M24 46.23H23V47.23H24V46.23Z" fill="#F2F2F1" fill-opacity="0.713726"/>
<path d="M25 46.24H24V47.24H25V46.24Z" fill="#F2F2F1"/>
<path d="M26 46.25H25V47.25H26V46.25Z" fill="#F2F2F1"/>
<path d="M27 46.26H26V47.26H27V46.26Z" fill="#F2F2F1"/>
<path d="M28 46.27H27V47.27H28V46.27Z" fill="#F2F2F1"/>
<path d="M29 46.28H28V47.28H29V46.28Z" fill="#F2F2F1"/>
<path d="M30 46.29H29V47.29H30V46.29Z" fill="#F2F2F1"/>
<path d="M31 46.3H30V47.3H31V46.3Z" fill="#F2F2F1"/>
<path d="M32 46.31H31V47.31H32V46.31Z" fill="#F2F2F1"/>
<path d="M33 46.32H32V47.32H33V46.32Z" fill="#F2F2F1"/>
<path d="M34 46.33H33V47.33H34V46.33Z" fill="#F2F2F1"/>
<path d="M35 46.34H34V47.34H35V46.34Z" fill="#F2F2F1"/>
<path d="M36 46.35H35V47.35H36V46.35Z" fill="#F2F2F1"/>
<path d="M37 46.36H36V47.36H37V46.36Z" fill="#F2F2F1"/>
<path d="M38 46.37H37V47.37H38V46.37Z" fill="#F2F2F1"/>
<path d="M39 46.38H38V47.38H39V46.38Z" fill="#F2F2F1"/>
<path d="M40 46.39H39V47.39H40V46.39Z" fill="#F2F2F1"/>
<path d="M41 46.4H40V47.4H41V46.4Z" fill="#F2F2F1"/>
<path d="M42 46.41H41V47.41H42V46.41Z" fill="#F2F2F1"/>
<path d="M43 46.42H42V47.42H43V46.42Z" fill="#F2F2F1"/>
<path d="M44 46.43H43V47.43H44V46.43Z" fill="#F2F2F1"/>
<path d="M45 46.44H44V47.44H45V46.44Z" fill="#F2F2F1"/>
<path d="M46 46.45H45V47.45H46V46.45Z" fill="#F2F2F1"/>
<path d="M47 46.46H46V47.46H47V46.46Z" fill="#F2F2F1"/>
<path d="M48 46.47H47V47.47H48V46.47Z" fill="#F2F2F1"/>
<path d="M49 46.48H48V47.48H49V46.48Z" fill="#F2F2F1"/>
<path d="M50 46.49H49V47.49H50V46.49Z" fill="#F2F2F1"/>
<path d="M51 46.5H50V47.5H51V46.5Z" fill="#F2F2F1"/>
<path d="M52 46.51H51V47.51H52V46.51Z" fill="#F2F2F1"/>
<path d="M53 46.52H52V47.52H53V46.52Z" fill="#F2F2F1"/>
<path d="M54 46.53H53V47.53H54V46.53Z" fill="#F2F2F1"/>
<path d="M55 46.54H54V47.54H55V46.54Z" fill="#F2F2F1"/>
<path d="M56 46.55H55V47.55H56V46.55Z" fill="#F2F2F1"/>
<path d="M57 46.56H56V47.56H57V46.56Z" fill="#F2F2F1"/>
<path d="M58 46.57H57V47.57H58V46.57Z" fill="#F2F2F1"/>
<path d="M59 46.58H58V47.58H59V46.58Z" fill="#F2F2F1"/>
<path d="M60 46.59H59V47.59H60V46.59Z" fill="#F2F2F1"/>
<path d="M61 46.6H60V47.6H61V46.6Z" fill="#F3F3F2"/>
<path d="M62 46.61H61V47.61H62V46.61Z" fill="#EFEFEE"/>
<path d="M63 46.62H62V47.62H63V46.62Z" fill="#F9F9F8"/>
<path d="M64 46.63H63V47.63H64V46.63Z" fill="#F6F6F5"/>
<path d="M65 46.64H64V47.64H65V46.64Z" fill="#E6E6E6"/>
<path d="M66 46.65H65V47.65H66V46.65Z" fill="#C0C0C1"/>
<path d="M67 46.66H66V47.66H67V46.66Z" fill="#575759"/>
<path d="M68 46.67H67V47.67H68V46.67Z" fill="#262628"/>
<path d="M69 46.68H68V47.68H69V46.68Z" fill="#474749"/>
<path d="M70 46.69H69V47.69H70V46.69Z" fill="#49494B"/>
<path d="M71 46.7H70V47.7H71V46.7Z" fill="#48484A"/>
<path d="M72 46.71H71V47.71H72V46.71Z" fill="#48484A"/>
<path d="M73 46.72H72V47.72H73V46.72Z" fill="#48484A"/>
<path d="M74 46.73H73V47.73H74V46.73Z" fill="#48484A"/>
<path d="M75 46.74H74V47.74H75V46.74Z" fill="#48484A"/>
<path d="M76 46.75H75V47.75H76V46.75Z" fill="#48484A"/>
<path d="M77 46.76H76V47.76H77V46.76Z" fill="#48484A"/>
<path d="M78 46.77H77V47.77H78V46.77Z" fill="#47474A" fill-opacity="0.631373"/>
<path d="M23 47.22H22V48.22H23V47.22Z" fill="#F4F4EE" fill-opacity="0.180392"/>
<path d="M24 47.23H23V48.23H24V47.23Z" fill="#F2F2F1"/>
<path d="M25 47.24H24V48.24H25V47.24Z" fill="#F2F2F1"/>
<path d="M26 47.25H25V48.25H26V47.25Z" fill="#F2F2F1"/>
<path d="M27 47.26H26V48.26H27V47.26Z" fill="#F2F2F1"/>
<path d="M28 47.27H27V48.27H28V47.27Z" fill="#F2F2F1"/>
<path d="M29 47.28H28V48.28H29V47.28Z" fill="#F2F2F1"/>
<path d="M30 47.29H29V48.29H30V47.29Z" fill="#F2F2F1"/>
<path d="M31 47.3H30V48.3H31V47.3Z" fill="#F2F2F1"/>
<path d="M32 47.31H31V48.31H32V47.31Z" fill="#F2F2F1"/>
<path d="M33 47.32H32V48.32H33V47.32Z" fill="#F2F2F1"/>
<path d="M34 47.33H33V48.33H34V47.33Z" fill="#F2F2F1"/>
<path d="M35 47.34H34V48.34H35V47.34Z" fill="#F2F2F1"/>
<path d="M36 47.35H35V48.35H36V47.35Z" fill="#F2F2F1"/>
<path d="M37 47.36H36V48.36H37V47.36Z" fill="#F2F2F1"/>
<path d="M38 47.37H37V48.37H38V47.37Z" fill="#F2F2F1"/>
<path d="M39 47.38H38V48.38H39V47.38Z" fill="#F2F2F1"/>
<path d="M40 47.39H39V48.39H40V47.39Z" fill="#F2F2F1"/>
<path d="M41 47.4H40V48.4H41V47.4Z" fill="#F2F2F1"/>
<path d="M42 47.41H41V48.41H42V47.41Z" fill="#F2F2F1"/>
<path d="M43 47.42H42V48.42H43V47.42Z" fill="#F2F2F1"/>
<path d="M44 47.43H43V48.43H44V47.43Z" fill="#F2F2F1"/>
<path d="M45 47.44H44V48.44H45V47.44Z" fill="#F2F2F1"/>
<path d="M46 47.45H45V48.45H46V47.45Z" fill="#F2F2F1"/>
<path d="M47 47.46H46V48.46H47V47.46Z" fill="#F2F2F1"/>
<path d="M48 47.47H47V48.47H48V47.47Z" fill="#F2F2F1"/>
<path d="M49 47.48H48V48.48H49V47.48Z" fill="#F2F2F1"/>
<path d="M50 47.49H49V48.49H50V47.49Z" fill="#F2F2F1"/>
<path d="M51 47.5H50V48.5H51V47.5Z" fill="#F2F2F1"/>
<path d="M52 47.51H51V48.51H52V47.51Z" fill="#F2F2F1"/>
<path d="M53 47.52H52V48.52H53V47.52Z" fill="#F2F2F1"/>
<path d="M54 47.53H53V48.53H54V47.53Z" fill="#F2F2F1"/>
<path d="M55 47.54H54V48.54H55V47.54Z" fill="#F2F2F1"/>
<path d="M56 47.55H55V48.55H56V47.55Z" fill="#F2F2F1"/>
<path d="M57 47.56H56V48.56H57V47.56Z" fill="#F2F2F1"/>
<path d="M58 47.57H57V48.57H58V47.57Z" fill="#F2F2F1"/>
<path d="M59 47.58H58V48.58H59V47.58Z" fill="#F2F2F1"/>
<path d="M60 47.59H59V48.59H60V47.59Z" fill="#F2F2F1"/>
<path d="M61 47.6H60V48.6H61V47.6Z" fill="#F1F1F0"/>
<path d="M62 47.61H61V48.61H62V47.61Z" fill="#F8F8F7"/>
<path d="M63 47.62H62V48.62H63V47.62Z" fill="#FBFBFA"/>
<path d="M64 47.63H63V48.63H64V47.63Z" fill="#FBFBF9"/>
<path d="M65 47.64H64V48.64H65V47.64Z" fill="white"/>
<path d="M66 47.65H65V48.65H66V47.65Z" fill="white"/>
<path d="M67 47.66H66V48.66H67V47.66Z" fill="#FBFBFA"/>
<path d="M68 47.67H67V48.67H68V47.67Z" fill="#757576"/>
<path d="M69 47.68H68V48.68H69V47.68Z" fill="#272729"/>
<path d="M70 47.69H69V48.69H70V47.69Z" fill="#49494B"/>
<path d="M71 47.7H70V48.7H71V47.7Z" fill="#48484A"/>
<path d="M72 47.71H71V48.71H72V47.71Z" fill="#48484A"/>
<path d="M73 47.72H72V48.72H73V47.72Z" fill="#48484A"/>
<path d="M74 47.73H73V48.73H74V47.73Z" fill="#48484A"/>
<path d="M75 47.74H74V48.74H75V47.74Z" fill="#48484A"/>
<path d="M76 47.75H75V48.75H76V47.75Z" fill="#48484A"/>
<path d="M77 47.76H76V48.76H77V47.76Z" fill="#48484A" fill-opacity="0.933333"/>
<path d="M78 47.77H77V48.77H78V47.77Z" fill="#43434E" fill-opacity="0.0901961"/>
<path d="M23 48.22H22V49.22H23V48.22Z" fill="#F2F2F2" fill-opacity="0.596078"/>
<path d="M24 48.23H23V49.23H24V48.23Z" fill="#F2F2F1"/>
<path d="M25 48.24H24V49.24H25V48.24Z" fill="#F2F2F1"/>
<path d="M26 48.25H25V49.25H26V48.25Z" fill="#F2F2F1"/>
<path d="M27 48.26H26V49.26H27V48.26Z" fill="#F2F2F1"/>
<path d="M28 48.27H27V49.27H28V48.27Z" fill="#F2F2F1"/>
<path d="M29 48.28H28V49.28H29V48.28Z" fill="#F2F2F1"/>
<path d="M30 48.29H29V49.29H30V48.29Z" fill="#F2F2F1"/>
<path d="M31 48.3H30V49.3H31V48.3Z" fill="#F2F2F1"/>
<path d="M32 48.31H31V49.31H32V48.31Z" fill="#F2F2F1"/>
<path d="M33 48.32H32V49.32H33V48.32Z" fill="#F2F2F1"/>
<path d="M34 48.33H33V49.33H34V48.33Z" fill="#F2F2F1"/>
<path d="M35 48.34H34V49.34H35V48.34Z" fill="#F2F2F1"/>
<path d="M36 48.35H35V49.35H36V48.35Z" fill="#F2F2F1"/>
<path d="M37 48.36H36V49.36H37V48.36Z" fill="#F2F2F1"/>
<path d="M38 48.37H37V49.37H38V48.37Z" fill="#F2F2F1"/>
<path d="M39 48.38H38V49.38H39V48.38Z" fill="#F2F2F1"/>
<path d="M40 48.39H39V49.39H40V48.39Z" fill="#F2F2F1"/>
<path d="M41 48.4H40V49.4H41V48.4Z" fill="#F2F2F1"/>
<path d="M42 48.41H41V49.41H42V48.41Z" fill="#F2F2F1"/>
<path d="M43 48.42H42V49.42H43V48.42Z" fill="#F2F2F1"/>
<path d="M44 48.43H43V49.43H44V48.43Z" fill="#F2F2F1"/>
<path d="M45 48.44H44V49.44H45V48.44Z" fill="#F2F2F1"/>
<path d="M46 48.45H45V49.45H46V48.45Z" fill="#F2F2F1"/>
<path d="M47 48.46H46V49.46H47V48.46Z" fill="#F2F2F1"/>
<path d="M48 48.47H47V49.47H48V48.47Z" fill="#F2F2F1"/>
<path d="M49 48.48H48V49.48H49V48.48Z" fill="#F2F2F1"/>
<path d="M50 48.49H49V49.49H50V48.49Z" fill="#F2F2F1"/>
<path d="M51 48.5H50V49.5H51V48.5Z" fill="#F2F2F1"/>
<path d="M52 48.51H51V49.51H52V48.51Z" fill="#F2F2F1"/>
<path d="M53 48.52H52V49.52H53V48.52Z" fill="#F2F2F1"/>
<path d="M54 48.53H53V49.53H54V48.53Z" fill="#F2F2F1"/>
<path d="M55 48.54H54V49.54H55V48.54Z" fill="#F2F2F1"/>
<path d="M56 48.55H55V49.55H56V48.55Z" fill="#F2F2F1"/>
<path d="M57 48.56H56V49.56H57V48.56Z" fill="#F2F2F1"/>
<path d="M58 48.57H57V49.57H58V48.57Z" fill="#F2F2F1"/>
<path d="M59 48.58H58V49.58H59V48.58Z" fill="#F2F2F1"/>
<path d="M60 48.59H59V49.59H60V48.59Z" fill="#F2F2F1"/>
<path d="M61 48.6H60V49.6H61V48.6Z" fill="#F2F2F1"/>
<path d="M62 48.61H61V49.61H62V48.61Z" fill="#F2F2F1"/>
<path d="M63 48.62H62V49.62H63V48.62Z" fill="#F2F2F1"/>
<path d="M64 48.63H63V49.63H64V48.63Z" fill="#F2F2F1"/>
<path d="M65 48.64H64V49.64H65V48.64Z" fill="#F2F2F1"/>
<path d="M66 48.65H65V49.65H66V48.65Z" fill="#F0F0EF"/>
<path d="M67 48.66H66V49.66H67V48.66Z" fill="white"/>
<path d="M68 48.67H67V49.67H68V48.67Z" fill="white"/>
<path d="M69 48.68H68V49.68H69V48.68Z" fill="#6A6A6B"/>
<path d="M70 48.69H69V49.69H70V48.69Z" fill="#2D2D30"/>
<path d="M71 48.7H70V49.7H71V48.7Z" fill="#4A4A4C"/>
<path d="M72 48.71H71V49.71H72V48.71Z" fill="#48484A"/>
<path d="M73 48.72H72V49.72H73V48.72Z" fill="#48484A"/>
<path d="M74 48.73H73V49.73H74V48.73Z" fill="#48484A"/>
<path d="M75 48.74H74V49.74H75V48.74Z" fill="#48484A"/>
<path d="M76 48.75H75V49.75H76V48.75Z" fill="#48484A" fill-opacity="0.976471"/>
<path d="M77 48.76H76V49.76H77V48.76Z" fill="#46464B" fill-opacity="0.2"/>
<path d="M23 49.22H22V50.22H23V49.22Z" fill="#F1F1F1" fill-opacity="0.807843"/>
<path d="M24 49.23H23V50.23H24V49.23Z" fill="#F2F2F1"/>
<path d="M25 49.24H24V50.24H25V49.24Z" fill="#F2F2F1"/>
<path d="M26 49.25H25V50.25H26V49.25Z" fill="#F2F2F1"/>
<path d="M27 49.26H26V50.26H27V49.26Z" fill="#F2F2F1"/>
<path d="M28 49.27H27V50.27H28V49.27Z" fill="#F2F2F1"/>
<path d="M29 49.28H28V50.28H29V49.28Z" fill="#F2F2F1"/>
<path d="M30 49.29H29V50.29H30V49.29Z" fill="#F2F2F1"/>
<path d="M31 49.3H30V50.3H31V49.3Z" fill="#F2F2F1"/>
<path d="M32 49.31H31V50.31H32V49.31Z" fill="#F2F2F1"/>
<path d="M33 49.32H32V50.32H33V49.32Z" fill="#F2F2F1"/>
<path d="M34 49.33H33V50.33H34V49.33Z" fill="#F2F2F1"/>
<path d="M35 49.34H34V50.34H35V49.34Z" fill="#F2F2F1"/>
<path d="M36 49.35H35V50.35H36V49.35Z" fill="#F2F2F1"/>
<path d="M37 49.36H36V50.36H37V49.36Z" fill="#F2F2F1"/>
<path d="M38 49.37H37V50.37H38V49.37Z" fill="#F2F2F1"/>
<path d="M39 49.38H38V50.38H39V49.38Z" fill="#F2F2F1"/>
<path d="M40 49.39H39V50.39H40V49.39Z" fill="#F2F2F1"/>
<path d="M41 49.4H40V50.4H41V49.4Z" fill="#F2F2F1"/>
<path d="M42 49.41H41V50.41H42V49.41Z" fill="#F2F2F1"/>
<path d="M43 49.42H42V50.42H43V49.42Z" fill="#F2F2F1"/>
<path d="M44 49.43H43V50.43H44V49.43Z" fill="#F2F2F1"/>
<path d="M45 49.44H44V50.44H45V49.44Z" fill="#F2F2F1"/>
<path d="M46 49.45H45V50.45H46V49.45Z" fill="#F2F2F1"/>
<path d="M47 49.46H46V50.46H47V49.46Z" fill="#F2F2F1"/>
<path d="M48 49.47H47V50.47H48V49.47Z" fill="#F2F2F1"/>
<path d="M49 49.48H48V50.48H49V49.48Z" fill="#F2F2F1"/>
<path d="M50 49.49H49V50.49H50V49.49Z" fill="#F2F2F1"/>
<path d="M51 49.5H50V50.5H51V49.5Z" fill="#F2F2F1"/>
<path d="M52 49.51H51V50.51H52V49.51Z" fill="#F2F2F1"/>
<path d="M53 49.52H52V50.52H53V49.52Z" fill="#F2F2F1"/>
<path d="M54 49.53H53V50.53H54V49.53Z" fill="#F2F2F1"/>
<path d="M55 49.54H54V50.54H55V49.54Z" fill="#F2F2F1"/>
<path d="M56 49.55H55V50.55H56V49.55Z" fill="#F2F2F1"/>
<path d="M57 49.56H56V50.56H57V49.56Z" fill="#F2F2F1"/>
<path d="M58 49.57H57V50.57H58V49.57Z" fill="#F2F2F1"/>
<path d="M59 49.58H58V50.58H59V49.58Z" fill="#F2F2F1"/>
<path d="M60 49.59H59V50.59H60V49.59Z" fill="#F2F2F1"/>
<path d="M61 49.6H60V50.6H61V49.6Z" fill="#F2F2F1"/>
<path d="M62 49.61H61V50.61H62V49.61Z" fill="#F2F2F1"/>
<path d="M63 49.62H62V50.62H63V49.62Z" fill="#F2F2F1"/>
<path d="M64 49.63H63V50.63H64V49.63Z" fill="#F2F2F1"/>
<path d="M65 49.64H64V50.64H65V49.64Z" fill="#F2F2F1"/>
<path d="M66 49.65H65V50.65H66V49.65Z" fill="#F2F2F1"/>
<path d="M67 49.66H66V50.66H67V49.66Z" fill="#F0F0EF"/>
<path d="M68 49.67H67V50.67H68V49.67Z" fill="white"/>
<path d="M69 49.68H68V50.68H69V49.68Z" fill="#E4E4E3"/>
<path d="M70 49.69H69V50.69H70V49.69Z" fill="#262629" fill-opacity="0.980392"/>
<path d="M71 49.7H70V50.7H71V49.7Z" fill="#343436"/>
<path d="M72 49.71H71V50.71H72V49.71Z" fill="#4C4C4E"/>
<path d="M73 49.72H72V50.72H73V49.72Z" fill="#48484A"/>
<path d="M74 49.73H73V50.73H74V49.73Z" fill="#48484A" fill-opacity="0.894118"/>
<path d="M75 49.74H74V50.74H75V49.74Z" fill="#48484A" fill-opacity="0.568627"/>
<path d="M76 49.75H75V50.75H76V49.75Z" fill="#4C4C4C" fill-opacity="0.105882"/>
<path d="M23 50.22H22V51.22H23V50.22Z" fill="#F2F2F1" fill-opacity="0.87451"/>
<path d="M24 50.23H23V51.23H24V50.23Z" fill="#F2F2F1"/>
<path d="M25 50.24H24V51.24H25V50.24Z" fill="#F2F2F1"/>
<path d="M26 50.25H25V51.25H26V50.25Z" fill="#F2F2F1"/>
<path d="M27 50.26H26V51.26H27V50.26Z" fill="#F2F2F1"/>
<path d="M28 50.27H27V51.27H28V50.27Z" fill="#F2F2F1"/>
<path d="M29 50.28H28V51.28H29V50.28Z" fill="#F2F2F1"/>
<path d="M30 50.29H29V51.29H30V50.29Z" fill="#F2F2F1"/>
<path d="M31 50.3H30V51.3H31V50.3Z" fill="#F2F2F1"/>
<path d="M32 50.31H31V51.31H32V50.31Z" fill="#F2F2F1"/>
<path d="M33 50.32H32V51.32H33V50.32Z" fill="#F2F2F1"/>
<path d="M34 50.33H33V51.33H34V50.33Z" fill="#F2F2F1"/>
<path d="M35 50.34H34V51.34H35V50.34Z" fill="#F2F2F1"/>
<path d="M36 50.35H35V51.35H36V50.35Z" fill="#F2F2F1"/>
<path d="M37 50.36H36V51.36H37V50.36Z" fill="#F2F2F1"/>
<path d="M38 50.37H37V51.37H38V50.37Z" fill="#F2F2F1"/>
<path d="M39 50.38H38V51.38H39V50.38Z" fill="#F2F2F1"/>
<path d="M40 50.39H39V51.39H40V50.39Z" fill="#F2F2F1"/>
<path d="M41 50.4H40V51.4H41V50.4Z" fill="#F2F2F1"/>
<path d="M42 50.41H41V51.41H42V50.41Z" fill="#F2F2F1"/>
<path d="M43 50.42H42V51.42H43V50.42Z" fill="#F2F2F1"/>
<path d="M44 50.43H43V51.43H44V50.43Z" fill="#F2F2F1"/>
<path d="M45 50.44H44V51.44H45V50.44Z" fill="#F2F2F1"/>
<path d="M46 50.45H45V51.45H46V50.45Z" fill="#F2F2F1"/>
<path d="M47 50.46H46V51.46H47V50.46Z" fill="#F2F2F1"/>
<path d="M48 50.47H47V51.47H48V50.47Z" fill="#F2F2F1"/>
<path d="M49 50.48H48V51.48H49V50.48Z" fill="#F2F2F1"/>
<path d="M50 50.49H49V51.49H50V50.49Z" fill="#F2F2F1"/>
<path d="M51 50.5H50V51.5H51V50.5Z" fill="#F2F2F1"/>
<path d="M52 50.51H51V51.51H52V50.51Z" fill="#F2F2F1"/>
<path d="M53 50.52H52V51.52H53V50.52Z" fill="#F2F2F1"/>
<path d="M54 50.53H53V51.53H54V50.53Z" fill="#F2F2F1"/>
<path d="M55 50.54H54V51.54H55V50.54Z" fill="#F2F2F1"/>
<path d="M56 50.55H55V51.55H56V50.55Z" fill="#F2F2F1"/>
<path d="M57 50.56H56V51.56H57V50.56Z" fill="#F2F2F1"/>
<path d="M58 50.57H57V51.57H58V50.57Z" fill="#F2F2F1"/>
<path d="M59 50.58H58V51.58H59V50.58Z" fill="#F2F2F1"/>
<path d="M60 50.59H59V51.59H60V50.59Z" fill="#F2F2F1"/>
<path d="M61 50.6H60V51.6H61V50.6Z" fill="#F2F2F1"/>
<path d="M62 50.61H61V51.61H62V50.61Z" fill="#F2F2F1"/>
<path d="M63 50.62H62V51.62H63V50.62Z" fill="#F2F2F1"/>
<path d="M64 50.63H63V51.63H64V50.63Z" fill="#F2F2F1"/>
<path d="M65 50.64H64V51.64H65V50.64Z" fill="#F2F2F1"/>
<path d="M66 50.65H65V51.65H66V50.65Z" fill="#F2F2F1"/>
<path d="M67 50.66H66V51.66H67V50.66Z" fill="#F2F2F1"/>
<path d="M68 50.67H67V51.67H68V50.67Z" fill="#F6F6F4"/>
<path d="M69 50.68H68V51.68H69V50.68Z" fill="white"/>
<path d="M70 50.69H69V51.69H70V50.69Z" fill="#ABABAB" fill-opacity="0.356863"/>
<path d="M71 50.7H70V51.7H71V50.7Z" fill="#303030" fill-opacity="0.145098"/>
<path d="M72 50.71H71V51.71H72V50.71Z" fill="#313137" fill-opacity="0.164706"/>
<path d="M73 50.72H72V51.72H73V50.72Z" fill="#4D4D4D" fill-opacity="0.156863"/>
<path d="M74 50.73H73V51.73H74V50.73Z" fill="#404040" fill-opacity="0.0156863"/>
<path d="M23 51.22H22V52.22H23V51.22Z" fill="#F2F2F1" fill-opacity="0.858824"/>
<path d="M24 51.23H23V52.23H24V51.23Z" fill="#F2F2F1"/>
<path d="M25 51.24H24V52.24H25V51.24Z" fill="#F2F2F1"/>
<path d="M26 51.25H25V52.25H26V51.25Z" fill="#F2F2F1"/>
<path d="M27 51.26H26V52.26H27V51.26Z" fill="#F2F2F1"/>
<path d="M28 51.27H27V52.27H28V51.27Z" fill="#F2F2F1"/>
<path d="M29 51.28H28V52.28H29V51.28Z" fill="#F2F2F1"/>
<path d="M30 51.29H29V52.29H30V51.29Z" fill="#F2F2F1"/>
<path d="M31 51.3H30V52.3H31V51.3Z" fill="#F2F2F1"/>
<path d="M32 51.31H31V52.31H32V51.31Z" fill="#F2F2F1"/>
<path d="M33 51.32H32V52.32H33V51.32Z" fill="#F2F2F1"/>
<path d="M34 51.33H33V52.33H34V51.33Z" fill="#F2F2F1"/>
<path d="M35 51.34H34V52.34H35V51.34Z" fill="#F2F2F1"/>
<path d="M36 51.35H35V52.35H36V51.35Z" fill="#F2F2F1"/>
<path d="M37 51.36H36V52.36H37V51.36Z" fill="#F2F2F1"/>
<path d="M38 51.37H37V52.37H38V51.37Z" fill="#F2F2F1"/>
<path d="M39 51.38H38V52.38H39V51.38Z" fill="#F2F2F1"/>
<path d="M40 51.39H39V52.39H40V51.39Z" fill="#F2F2F1"/>
<path d="M41 51.4H40V52.4H41V51.4Z" fill="#F2F2F1"/>
<path d="M42 51.41H41V52.41H42V51.41Z" fill="#F2F2F1"/>
<path d="M43 51.42H42V52.42H43V51.42Z" fill="#F2F2F1"/>
<path d="M44 51.43H43V52.43H44V51.43Z" fill="#F2F2F1"/>
<path d="M45 51.44H44V52.44H45V51.44Z" fill="#F2F2F1"/>
<path d="M46 51.45H45V52.45H46V51.45Z" fill="#F2F2F1"/>
<path d="M47 51.46H46V52.46H47V51.46Z" fill="#F2F2F1"/>
<path d="M48 51.47H47V52.47H48V51.47Z" fill="#F2F2F1"/>
<path d="M49 51.48H48V52.48H49V51.48Z" fill="#F2F2F1"/>
<path d="M50 51.49H49V52.49H50V51.49Z" fill="#F2F2F1"/>
<path d="M51 51.5H50V52.5H51V51.5Z" fill="#F2F2F1"/>
<path d="M52 51.51H51V52.51H52V51.51Z" fill="#F2F2F1"/>
<path d="M53 51.52H52V52.52H53V51.52Z" fill="#F2F2F1"/>
<path d="M54 51.53H53V52.53H54V51.53Z" fill="#F2F2F1"/>
<path d="M55 51.54H54V52.54H55V51.54Z" fill="#F2F2F1"/>
<path d="M56 51.55H55V52.55H56V51.55Z" fill="#F2F2F1"/>
<path d="M57 51.56H56V52.56H57V51.56Z" fill="#F2F2F1"/>
<path d="M58 51.57H57V52.57H58V51.57Z" fill="#F2F2F1"/>
<path d="M59 51.58H58V52.58H59V51.58Z" fill="#F2F2F1"/>
<path d="M60 51.59H59V52.59H60V51.59Z" fill="#F2F2F1"/>
<path d="M61 51.6H60V52.6H61V51.6Z" fill="#F2F2F1"/>
<path d="M62 51.61H61V52.61H62V51.61Z" fill="#F2F2F1"/>
<path d="M63 51.62H62V52.62H63V51.62Z" fill="#F2F2F1"/>
<path d="M64 51.63H63V52.63H64V51.63Z" fill="#F2F2F1"/>
<path d="M65 51.64H64V52.64H65V51.64Z" fill="#F2F2F1"/>
<path d="M66 51.65H65V52.65H66V51.65Z" fill="#F2F2F1"/>
<path d="M67 51.66H66V52.66H67V51.66Z" fill="#F2F2F1"/>
<path d="M68 51.67H67V52.67H68V51.67Z" fill="#F0F0EF"/>
<path d="M69 51.68H68V52.68H69V51.68Z" fill="#F5F5F4"/>
<path d="M70 51.69H69V52.69H70V51.69Z" fill="white" fill-opacity="0.45098"/>
<path d="M23 52.22H22V53.22H23V52.22Z" fill="#F3F3F1" fill-opacity="0.721569"/>
<path d="M24 52.23H23V53.23H24V52.23Z" fill="#F2F2F1"/>
<path d="M25 52.24H24V53.24H25V52.24Z" fill="#F2F2F1"/>
<path d="M26 52.25H25V53.25H26V52.25Z" fill="#F2F2F1"/>
<path d="M27 52.26H26V53.26H27V52.26Z" fill="#F2F2F1"/>
<path d="M28 52.27H27V53.27H28V52.27Z" fill="#F2F2F1"/>
<path d="M29 52.28H28V53.28H29V52.28Z" fill="#F2F2F1"/>
<path d="M30 52.29H29V53.29H30V52.29Z" fill="#F2F2F1"/>
<path d="M31 52.3H30V53.3H31V52.3Z" fill="#F2F2F1"/>
<path d="M32 52.31H31V53.31H32V52.31Z" fill="#F2F2F1"/>
<path d="M33 52.32H32V53.32H33V52.32Z" fill="#F2F2F1"/>
<path d="M34 52.33H33V53.33H34V52.33Z" fill="#F2F2F1"/>
<path d="M35 52.34H34V53.34H35V52.34Z" fill="#F2F2F1"/>
<path d="M36 52.35H35V53.35H36V52.35Z" fill="#F2F2F1"/>
<path d="M37 52.36H36V53.36H37V52.36Z" fill="#F2F2F1"/>
<path d="M38 52.37H37V53.37H38V52.37Z" fill="#F2F2F1"/>
<path d="M39 52.38H38V53.38H39V52.38Z" fill="#F2F2F1"/>
<path d="M40 52.39H39V53.39H40V52.39Z" fill="#F2F2F1"/>
<path d="M41 52.4H40V53.4H41V52.4Z" fill="#F2F2F1"/>
<path d="M42 52.41H41V53.41H42V52.41Z" fill="#F2F2F1"/>
<path d="M43 52.42H42V53.42H43V52.42Z" fill="#F2F2F1"/>
<path d="M44 52.43H43V53.43H44V52.43Z" fill="#F2F2F1"/>
<path d="M45 52.44H44V53.44H45V52.44Z" fill="#F2F2F1"/>
<path d="M46 52.45H45V53.45H46V52.45Z" fill="#F2F2F1"/>
<path d="M47 52.46H46V53.46H47V52.46Z" fill="#F2F2F1"/>
<path d="M48 52.47H47V53.47H48V52.47Z" fill="#F2F2F1"/>
<path d="M49 52.48H48V53.48H49V52.48Z" fill="#F2F2F1"/>
<path d="M50 52.49H49V53.49H50V52.49Z" fill="#F2F2F1"/>
<path d="M51 52.5H50V53.5H51V52.5Z" fill="#F2F2F1"/>
<path d="M52 52.51H51V53.51H52V52.51Z" fill="#F2F2F1"/>
<path d="M53 52.52H52V53.52H53V52.52Z" fill="#F2F2F1"/>
<path d="M54 52.53H53V53.53H54V52.53Z" fill="#F2F2F1"/>
<path d="M55 52.54H54V53.54H55V52.54Z" fill="#F2F2F1"/>
<path d="M56 52.55H55V53.55H56V52.55Z" fill="#F2F2F1"/>
<path d="M57 52.56H56V53.56H57V52.56Z" fill="#F2F2F1"/>
<path d="M58 52.57H57V53.57H58V52.57Z" fill="#F2F2F1"/>
<path d="M59 52.58H58V53.58H59V52.58Z" fill="#F2F2F1"/>
<path d="M60 52.59H59V53.59H60V52.59Z" fill="#F2F2F1"/>
<path d="M61 52.6H60V53.6H61V52.6Z" fill="#F2F2F1"/>
<path d="M62 52.61H61V53.61H62V52.61Z" fill="#F2F2F1"/>
<path d="M63 52.62H62V53.62H63V52.62Z" fill="#F2F2F1"/>
<path d="M64 52.63H63V53.63H64V52.63Z" fill="#F2F2F1"/>
<path d="M65 52.64H64V53.64H65V52.64Z" fill="#F2F2F1"/>
<path d="M66 52.65H65V53.65H66V52.65Z" fill="#F2F2F1"/>
<path d="M67 52.66H66V53.66H67V52.66Z" fill="#F2F2F1"/>
<path d="M68 52.67H67V53.67H68V52.67Z" fill="#F2F2F1"/>
<path d="M69 52.68H68V53.68H69V52.68Z" fill="#F1F1F0"/>
<path d="M70 52.69H69V53.69H70V52.69Z" fill="#F3F3F1" fill-opacity="0.662745"/>
<path d="M23 53.22H22V54.22H23V53.22Z" fill="#F3F3F0" fill-opacity="0.403922"/>
<path d="M24 53.23H23V54.23H24V53.23Z" fill="#F2F2F1"/>
<path d="M25 53.24H24V54.24H25V53.24Z" fill="#F2F2F1"/>
<path d="M26 53.25H25V54.25H26V53.25Z" fill="#F2F2F1"/>
<path d="M27 53.26H26V54.26H27V53.26Z" fill="#F2F2F1"/>
<path d="M28 53.27H27V54.27H28V53.27Z" fill="#F2F2F1"/>
<path d="M29 53.28H28V54.28H29V53.28Z" fill="#F2F2F1"/>
<path d="M30 53.29H29V54.29H30V53.29Z" fill="#F2F2F1"/>
<path d="M31 53.3H30V54.3H31V53.3Z" fill="#F2F2F1"/>
<path d="M32 53.31H31V54.31H32V53.31Z" fill="#F2F2F1"/>
<path d="M33 53.32H32V54.32H33V53.32Z" fill="#F2F2F1"/>
<path d="M34 53.33H33V54.33H34V53.33Z" fill="#F2F2F1"/>
<path d="M35 53.34H34V54.34H35V53.34Z" fill="#F2F2F1"/>
<path d="M36 53.35H35V54.35H36V53.35Z" fill="#F2F2F1"/>
<path d="M37 53.36H36V54.36H37V53.36Z" fill="#F2F2F1"/>
<path d="M38 53.37H37V54.37H38V53.37Z" fill="#F2F2F1"/>
<path d="M39 53.38H38V54.38H39V53.38Z" fill="#F2F2F1"/>
<path d="M40 53.39H39V54.39H40V53.39Z" fill="#F2F2F1"/>
<path d="M41 53.4H40V54.4H41V53.4Z" fill="#F2F2F1"/>
<path d="M42 53.41H41V54.41H42V53.41Z" fill="#F2F2F1"/>
<path d="M43 53.42H42V54.42H43V53.42Z" fill="#F2F2F1"/>
<path d="M44 53.43H43V54.43H44V53.43Z" fill="#F2F2F1"/>
<path d="M45 53.44H44V54.44H45V53.44Z" fill="#F2F2F1"/>
<path d="M46 53.45H45V54.45H46V53.45Z" fill="#F2F2F1"/>
<path d="M47 53.46H46V54.46H47V53.46Z" fill="#F2F2F1"/>
<path d="M48 53.47H47V54.47H48V53.47Z" fill="#F2F2F1"/>
<path d="M49 53.48H48V54.48H49V53.48Z" fill="#F2F2F1"/>
<path d="M50 53.49H49V54.49H50V53.49Z" fill="#F2F2F1"/>
<path d="M51 53.5H50V54.5H51V53.5Z" fill="#F2F2F1"/>
<path d="M52 53.51H51V54.51H52V53.51Z" fill="#F2F2F1"/>
<path d="M53 53.52H52V54.52H53V53.52Z" fill="#F2F2F1"/>
<path d="M54 53.53H53V54.53H54V53.53Z" fill="#F2F2F1"/>
<path d="M55 53.54H54V54.54H55V53.54Z" fill="#F2F2F1"/>
<path d="M56 53.55H55V54.55H56V53.55Z" fill="#F2F2F1"/>
<path d="M57 53.56H56V54.56H57V53.56Z" fill="#F2F2F1"/>
<path d="M58 53.57H57V54.57H58V53.57Z" fill="#F2F2F1"/>
<path d="M59 53.58H58V54.58H59V53.58Z" fill="#F2F2F1"/>
<path d="M60 53.59H59V54.59H60V53.59Z" fill="#F2F2F1"/>
<path d="M61 53.6H60V54.6H61V53.6Z" fill="#F2F2F1"/>
<path d="M62 53.61H61V54.61H62V53.61Z" fill="#F2F2F1"/>
<path d="M63 53.62H62V54.62H63V53.62Z" fill="#F2F2F1"/>
<path d="M64 53.63H63V54.63H64V53.63Z" fill="#F2F2F1"/>
<path d="M65 53.64H64V54.64H65V53.64Z" fill="#F2F2F1"/>
<path d="M66 53.65H65V54.65H66V53.65Z" fill="#F2F2F1"/>
<path d="M67 53.66H66V54.66H67V53.66Z" fill="#F2F2F1"/>
<path d="M68 53.67H67V54.67H68V53.67Z" fill="#F2F2F1"/>
<path d="M69 53.68H68V54.68H69V53.68Z" fill="#F2F2F1"/>
<path d="M70 53.69H69V54.69H70V53.69Z" fill="#F2F2F1" fill-opacity="0.631373"/>
<path d="M23 54.22H22V55.22H23V54.22Z" fill="white" fill-opacity="0.0156863"/>
<path d="M24 54.23H23V55.23H24V54.23Z" fill="#F2F2F1" fill-opacity="0.941176"/>
<path d="M25 54.24H24V55.24H25V54.24Z" fill="#F2F2F1"/>
<path d="M26 54.25H25V55.25H26V54.25Z" fill="#F2F2F1"/>
<path d="M27 54.26H26V55.26H27V54.26Z" fill="#F2F2F1"/>
<path d="M28 54.27H27V55.27H28V54.27Z" fill="#F2F2F1"/>
<path d="M29 54.28H28V55.28H29V54.28Z" fill="#F2F2F1"/>
<path d="M30 54.29H29V55.29H30V54.29Z" fill="#F2F2F1"/>
<path d="M31 54.3H30V55.3H31V54.3Z" fill="#F2F2F1"/>
<path d="M32 54.31H31V55.31H32V54.31Z" fill="#F2F2F1"/>
<path d="M33 54.32H32V55.32H33V54.32Z" fill="#F2F2F1"/>
<path d="M34 54.33H33V55.33H34V54.33Z" fill="#F2F2F1"/>
<path d="M35 54.34H34V55.34H35V54.34Z" fill="#F2F2F1"/>
<path d="M36 54.35H35V55.35H36V54.35Z" fill="#F2F2F1"/>
<path d="M37 54.36H36V55.36H37V54.36Z" fill="#F2F2F1"/>
<path d="M38 54.37H37V55.37H38V54.37Z" fill="#F2F2F1"/>
<path d="M39 54.38H38V55.38H39V54.38Z" fill="#F2F2F1"/>
<path d="M40 54.39H39V55.39H40V54.39Z" fill="#F2F2F1"/>
<path d="M41 54.4H40V55.4H41V54.4Z" fill="#F2F2F1"/>
<path d="M42 54.41H41V55.41H42V54.41Z" fill="#F2F2F1"/>
<path d="M43 54.42H42V55.42H43V54.42Z" fill="#F2F2F1"/>
<path d="M44 54.43H43V55.43H44V54.43Z" fill="#F2F2F1"/>
<path d="M45 54.44H44V55.44H45V54.44Z" fill="#F2F2F1"/>
<path d="M46 54.45H45V55.45H46V54.45Z" fill="#F2F2F1"/>
<path d="M47 54.46H46V55.46H47V54.46Z" fill="#F2F2F1"/>
<path d="M48 54.47H47V55.47H48V54.47Z" fill="#F2F2F1"/>
<path d="M49 54.48H48V55.48H49V54.48Z" fill="#F2F2F1"/>
<path d="M50 54.49H49V55.49H50V54.49Z" fill="#F2F2F1"/>
<path d="M51 54.5H50V55.5H51V54.5Z" fill="#F2F2F1"/>
<path d="M52 54.51H51V55.51H52V54.51Z" fill="#F2F2F1"/>
<path d="M53 54.52H52V55.52H53V54.52Z" fill="#F2F2F1"/>
<path d="M54 54.53H53V55.53H54V54.53Z" fill="#F2F2F1"/>
<path d="M55 54.54H54V55.54H55V54.54Z" fill="#F2F2F1"/>
<path d="M56 54.55H55V55.55H56V54.55Z" fill="#F2F2F1"/>
<path d="M57 54.56H56V55.56H57V54.56Z" fill="#F2F2F1"/>
<path d="M58 54.57H57V55.57H58V54.57Z" fill="#F2F2F1"/>
<path d="M59 54.58H58V55.58H59V54.58Z" fill="#F2F2F1"/>
<path d="M60 54.59H59V55.59H60V54.59Z" fill="#F2F2F1"/>
<path d="M61 54.6H60V55.6H61V54.6Z" fill="#F2F2F1"/>
<path d="M62 54.61H61V55.61H62V54.61Z" fill="#F2F2F1"/>
<path d="M63 54.62H62V55.62H63V54.62Z" fill="#F2F2F1"/>
<path d="M64 54.63H63V55.63H64V54.63Z" fill="#F2F2F1"/>
<path d="M65 54.64H64V55.64H65V54.64Z" fill="#F2F2F1"/>
<path d="M66 54.65H65V55.65H66V54.65Z" fill="#F2F2F1"/>
<path d="M67 54.66H66V55.66H67V54.66Z" fill="#F2F2F1"/>
<path d="M68 54.67H67V55.67H68V54.67Z" fill="#F2F2F1"/>
<path d="M69 54.68H68V55.68H69V54.68Z" fill="#F2F2F1"/>
<path d="M70 54.69H69V55.69H70V54.69Z" fill="#F3F3F1" fill-opacity="0.415686"/>
<path d="M24 55.23H23V56.23H24V55.23Z" fill="#F2F2F0" fill-opacity="0.396078"/>
<path d="M25 55.24H24V56.24H25V55.24Z" fill="#F2F2F1"/>
<path d="M26 55.25H25V56.25H26V55.25Z" fill="#F2F2F1"/>
<path d="M27 55.26H26V56.26H27V55.26Z" fill="#F2F2F1"/>
<path d="M28 55.27H27V56.27H28V55.27Z" fill="#F2F2F1"/>
<path d="M29 55.28H28V56.28H29V55.28Z" fill="#F2F2F1"/>
<path d="M30 55.29H29V56.29H30V55.29Z" fill="#F2F2F1"/>
<path d="M31 55.3H30V56.3H31V55.3Z" fill="#F2F2F1"/>
<path d="M32 55.31H31V56.31H32V55.31Z" fill="#F2F2F1"/>
<path d="M33 55.32H32V56.32H33V55.32Z" fill="#F2F2F1"/>
<path d="M34 55.33H33V56.33H34V55.33Z" fill="#F2F2F1"/>
<path d="M35 55.34H34V56.34H35V55.34Z" fill="#F2F2F1"/>
<path d="M36 55.35H35V56.35H36V55.35Z" fill="#F2F2F1"/>
<path d="M37 55.36H36V56.36H37V55.36Z" fill="#F1F1F0"/>
<path d="M38 55.37H37V56.37H38V55.37Z" fill="#F5F5F4"/>
<path d="M39 55.38H38V56.38H39V55.38Z" fill="#F9F9F8"/>
<path d="M40 55.39H39V56.39H40V55.39Z" fill="#F2F2F1"/>
<path d="M41 55.4H40V56.4H41V55.4Z" fill="#F2F2F1"/>
<path d="M42 55.41H41V56.41H42V55.41Z" fill="#F2F2F1"/>
<path d="M43 55.42H42V56.42H43V55.42Z" fill="#F2F2F1"/>
<path d="M44 55.43H43V56.43H44V55.43Z" fill="#F2F2F1"/>
<path d="M45 55.44H44V56.44H45V55.44Z" fill="#F2F2F1"/>
<path d="M46 55.45H45V56.45H46V55.45Z" fill="#F2F2F1"/>
<path d="M47 55.46H46V56.46H47V55.46Z" fill="#F2F2F1"/>
<path d="M48 55.47H47V56.47H48V55.47Z" fill="#F2F2F1"/>
<path d="M49 55.48H48V56.48H49V55.48Z" fill="#F2F2F1"/>
<path d="M50 55.49H49V56.49H50V55.49Z" fill="#F2F2F1"/>
<path d="M51 55.5H50V56.5H51V55.5Z" fill="#F2F2F1"/>
<path d="M52 55.51H51V56.51H52V55.51Z" fill="#F2F2F1"/>
<path d="M53 55.52H52V56.52H53V55.52Z" fill="#F2F2F1"/>
<path d="M54 55.53H53V56.53H54V55.53Z" fill="#F2F2F1"/>
<path d="M55 55.54H54V56.54H55V55.54Z" fill="#F2F2F1"/>
<path d="M56 55.55H55V56.55H56V55.55Z" fill="#F2F2F1"/>
<path d="M57 55.56H56V56.56H57V55.56Z" fill="#F2F2F1"/>
<path d="M58 55.57H57V56.57H58V55.57Z" fill="#F2F2F1"/>
<path d="M59 55.58H58V56.58H59V55.58Z" fill="#F2F2F1"/>
<path d="M60 55.59H59V56.59H60V55.59Z" fill="#F2F2F1"/>
<path d="M61 55.6H60V56.6H61V55.6Z" fill="#F2F2F1"/>
<path d="M62 55.61H61V56.61H62V55.61Z" fill="#F2F2F1"/>
<path d="M63 55.62H62V56.62H63V55.62Z" fill="#F2F2F1"/>
<path d="M64 55.63H63V56.63H64V55.63Z" fill="#F2F2F1"/>
<path d="M65 55.64H64V56.64H65V55.64Z" fill="#F2F2F1"/>
<path d="M66 55.65H65V56.65H66V55.65Z" fill="#F2F2F1"/>
<path d="M67 55.66H66V56.66H67V55.66Z" fill="#F2F2F1"/>
<path d="M68 55.67H67V56.67H68V55.67Z" fill="#F2F2F1"/>
<path d="M69 55.68H68V56.68H69V55.68Z" fill="#F2F2F1"/>
<path d="M70 55.69H69V56.69H70V55.69Z" fill="#EEEEEE" fill-opacity="0.0588235"/>
<path d="M25 56.24H24V57.24H25V56.24Z" fill="#F2F2F1" fill-opacity="0.698039"/>
<path d="M26 56.25H25V57.25H26V56.25Z" fill="#F2F2F1"/>
<path d="M27 56.26H26V57.26H27V56.26Z" fill="#F2F2F1"/>
<path d="M28 56.27H27V57.27H28V56.27Z" fill="#F2F2F1"/>
<path d="M29 56.28H28V57.28H29V56.28Z" fill="#F2F2F1"/>
<path d="M30 56.29H29V57.29H30V56.29Z" fill="#F2F2F1"/>
<path d="M31 56.3H30V57.3H31V56.3Z" fill="#F2F2F1"/>
<path d="M32 56.31H31V57.31H32V56.31Z" fill="#F2F2F1"/>
<path d="M33 56.32H32V57.32H33V56.32Z" fill="#F2F2F1"/>
<path d="M34 56.33H33V57.33H34V56.33Z" fill="#F2F2F1"/>
<path d="M35 56.34H34V57.34H35V56.34Z" fill="#F2F2F1"/>
<path d="M36 56.35H35V57.35H36V56.35Z" fill="#F0F0EF"/>
<path d="M37 56.36H36V57.36H37V56.36Z" fill="#F4F4F3"/>
<path d="M38 56.37H37V57.37H38V56.37Z" fill="white"/>
<path d="M39 56.38H38V57.38H39V56.38Z" fill="white"/>
<path d="M40 56.39H39V57.39H40V56.39Z" fill="white"/>
<path d="M41 56.4H40V57.4H41V56.4Z" fill="#F1F1F0"/>
<path d="M42 56.41H41V57.41H42V56.41Z" fill="#F2F2F1"/>
<path d="M43 56.42H42V57.42H43V56.42Z" fill="#F2F2F1"/>
<path d="M44 56.43H43V57.43H44V56.43Z" fill="#F2F2F1"/>
<path d="M45 56.44H44V57.44H45V56.44Z" fill="#F2F2F1"/>
<path d="M46 56.45H45V57.45H46V56.45Z" fill="#F2F2F1"/>
<path d="M47 56.46H46V57.46H47V56.46Z" fill="#F2F2F1"/>
<path d="M48 56.47H47V57.47H48V56.47Z" fill="#F2F2F1"/>
<path d="M49 56.48H48V57.48H49V56.48Z" fill="#F2F2F1"/>
<path d="M50 56.49H49V57.49H50V56.49Z" fill="#F2F2F1"/>
<path d="M51 56.5H50V57.5H51V56.5Z" fill="#F2F2F1"/>
<path d="M52 56.51H51V57.51H52V56.51Z" fill="#F2F2F1"/>
<path d="M53 56.52H52V57.52H53V56.52Z" fill="#F2F2F1"/>
<path d="M54 56.53H53V57.53H54V56.53Z" fill="#F2F2F1"/>
<path d="M55 56.54H54V57.54H55V56.54Z" fill="#F2F2F1"/>
<path d="M56 56.55H55V57.55H56V56.55Z" fill="#F2F2F1"/>
<path d="M57 56.56H56V57.56H57V56.56Z" fill="#F2F2F1"/>
<path d="M58 56.57H57V57.57H58V56.57Z" fill="#F2F2F1"/>
<path d="M59 56.58H58V57.58H59V56.58Z" fill="#F2F2F1"/>
<path d="M60 56.59H59V57.59H60V56.59Z" fill="#F2F2F1"/>
<path d="M61 56.6H60V57.6H61V56.6Z" fill="#F2F2F1"/>
<path d="M62 56.61H61V57.61H62V56.61Z" fill="#F2F2F1"/>
<path d="M63 56.62H62V57.62H63V56.62Z" fill="#F2F2F1"/>
<path d="M64 56.63H63V57.63H64V56.63Z" fill="#F2F2F1"/>
<path d="M65 56.64H64V57.64H65V56.64Z" fill="#F2F2F1"/>
<path d="M66 56.65H65V57.65H66V56.65Z" fill="#F2F2F1"/>
<path d="M67 56.66H66V57.66H67V56.66Z" fill="#F2F2F1"/>
<path d="M68 56.67H67V57.67H68V56.67Z" fill="#F2F2F1"/>
<path d="M69 56.68H68V57.68H69V56.68Z" fill="#F1F1F1" fill-opacity="0.580392"/>
<path d="M26 57.25H25V58.25H26V57.25Z" fill="#F2F2F0" fill-opacity="0.682353"/>
<path d="M27 57.26H26V58.26H27V57.26Z" fill="#F2F2F1"/>
<path d="M28 57.27H27V58.27H28V57.27Z" fill="#F2F2F1"/>
<path d="M29 57.28H28V58.28H29V57.28Z" fill="#F2F2F1"/>
<path d="M30 57.29H29V58.29H30V57.29Z" fill="#F2F2F1"/>
<path d="M31 57.3H30V58.3H31V57.3Z" fill="#F2F2F1"/>
<path d="M32 57.31H31V58.31H32V57.31Z" fill="#F2F2F1"/>
<path d="M33 57.32H32V58.32H33V57.32Z" fill="#F2F2F1"/>
<path d="M34 57.33H33V58.33H34V57.33Z" fill="#F2F2F1"/>
<path d="M35 57.34H34V58.34H35V57.34Z" fill="#F2F2F1"/>
<path d="M36 57.35H35V58.35H36V57.35Z" fill="#F6F6F5"/>
<path d="M37 57.36H36V58.36H37V57.36Z" fill="white"/>
<path d="M38 57.37H37V58.37H38V57.37Z" fill="#969697"/>
<path d="M39 57.38H38V58.38H39V57.38Z" fill="#4A4A4C"/>
<path d="M40 57.39H39V58.39H40V57.39Z" fill="#C8C8C7"/>
<path d="M41 57.4H40V58.4H41V57.4Z" fill="#FCFCFC"/>
<path d="M42 57.41H41V58.41H42V57.41Z" fill="#F2F2F1"/>
<path d="M43 57.42H42V58.42H43V57.42Z" fill="#F2F2F1"/>
<path d="M44 57.43H43V58.43H44V57.43Z" fill="#F2F2F1"/>
<path d="M45 57.44H44V58.44H45V57.44Z" fill="#F2F2F1"/>
<path d="M46 57.45H45V58.45H46V57.45Z" fill="#F2F2F1"/>
<path d="M47 57.46H46V58.46H47V57.46Z" fill="#F2F2F1"/>
<path d="M48 57.47H47V58.47H48V57.47Z" fill="#F2F2F1"/>
<path d="M49 57.48H48V58.48H49V57.48Z" fill="#F2F2F1"/>
<path d="M50 57.49H49V58.49H50V57.49Z" fill="#F2F2F1"/>
<path d="M51 57.5H50V58.5H51V57.5Z" fill="#F2F2F1"/>
<path d="M52 57.51H51V58.51H52V57.51Z" fill="#F2F2F1"/>
<path d="M53 57.52H52V58.52H53V57.52Z" fill="#F2F2F1"/>
<path d="M54 57.53H53V58.53H54V57.53Z" fill="#F2F2F1"/>
<path d="M55 57.54H54V58.54H55V57.54Z" fill="#F2F2F1"/>
<path d="M56 57.55H55V58.55H56V57.55Z" fill="#F2F2F1"/>
<path d="M57 57.56H56V58.56H57V57.56Z" fill="#F2F2F1"/>
<path d="M58 57.57H57V58.57H58V57.57Z" fill="#F2F2F1"/>
<path d="M59 57.58H58V58.58H59V57.58Z" fill="#F2F2F1"/>
<path d="M60 57.59H59V58.59H60V57.59Z" fill="#F2F2F1"/>
<path d="M61 57.6H60V58.6H61V57.6Z" fill="#F2F2F1"/>
<path d="M62 57.61H61V58.61H62V57.61Z" fill="#F2F2F1"/>
<path d="M63 57.62H62V58.62H63V57.62Z" fill="#F2F2F1"/>
<path d="M64 57.63H63V58.63H64V57.63Z" fill="#F2F2F1"/>
<path d="M65 57.64H64V58.64H65V57.64Z" fill="#F2F2F1"/>
<path d="M66 57.65H65V58.65H66V57.65Z" fill="#F2F2F1"/>
<path d="M67 57.66H66V58.66H67V57.66Z" fill="#F2F2F1"/>
<path d="M68 57.67H67V58.67H68V57.67Z" fill="#F2F2F1" fill-opacity="0.709804"/>
<path d="M27 58.26H26V59.26H27V58.26Z" fill="#F2F2F2" fill-opacity="0.384314"/>
<path d="M28 58.27H27V59.27H28V58.27Z" fill="#F2F2F1" fill-opacity="0.831373"/>
<path d="M29 58.28H28V59.28H29V58.28Z" fill="#F2F2F1"/>
<path d="M30 58.29H29V59.29H30V58.29Z" fill="#F2F2F1"/>
<path d="M31 58.3H30V59.3H31V58.3Z" fill="#F2F2F1"/>
<path d="M32 58.31H31V59.31H32V58.31Z" fill="#F2F2F1"/>
<path d="M33 58.32H32V59.32H33V58.32Z" fill="#F2F2F1"/>
<path d="M34 58.33H33V59.33H34V58.33Z" fill="#F2F2F1"/>
<path d="M35 58.34H34V59.34H35V58.34Z" fill="#F0F0EF"/>
<path d="M36 58.35H35V59.35H36V58.35Z" fill="white"/>
<path d="M37 58.36H36V59.36H37V58.36Z" fill="#E4E4E3"/>
<path d="M38 58.37H37V59.37H38V58.37Z" fill="#2B2B2D"/>
<path d="M39 58.38H38V59.38H39V58.38Z" fill="#0A0A0C"/>
<path d="M40 58.39H39V59.39H40V58.39Z" fill="#5F5F60"/>
<path d="M41 58.4H40V59.4H41V58.4Z" fill="#FEFEFE"/>
<path d="M42 58.41H41V59.41H42V58.41Z" fill="#F8F8F7"/>
<path d="M43 58.42H42V59.42H43V58.42Z" fill="#F2F2F1"/>
<path d="M44 58.43H43V59.43H44V58.43Z" fill="#F2F2F1"/>
<path d="M45 58.44H44V59.44H45V58.44Z" fill="#F2F2F1"/>
<path d="M46 58.45H45V59.45H46V58.45Z" fill="#F2F2F1"/>
<path d="M47 58.46H46V59.46H47V58.46Z" fill="#F2F2F1"/>
<path d="M48 58.47H47V59.47H48V58.47Z" fill="#F2F2F1"/>
<path d="M49 58.48H48V59.48H49V58.48Z" fill="#F2F2F1"/>
<path d="M50 58.49H49V59.49H50V58.49Z" fill="#F2F2F1"/>
<path d="M51 58.5H50V59.5H51V58.5Z" fill="#F2F2F1"/>
<path d="M52 58.51H51V59.51H52V58.51Z" fill="#F2F2F1"/>
<path d="M53 58.52H52V59.52H53V58.52Z" fill="#F2F2F1"/>
<path d="M54 58.53H53V59.53H54V58.53Z" fill="#F2F2F1"/>
<path d="M55 58.54H54V59.54H55V58.54Z" fill="#F2F2F1"/>
<path d="M56 58.55H55V59.55H56V58.55Z" fill="#F2F2F1"/>
<path d="M57 58.56H56V59.56H57V58.56Z" fill="#F2F2F1"/>
<path d="M58 58.57H57V59.57H58V58.57Z" fill="#F2F2F1"/>
<path d="M59 58.58H58V59.58H59V58.58Z" fill="#F2F2F1"/>
<path d="M60 58.59H59V59.59H60V58.59Z" fill="#F2F2F1"/>
<path d="M61 58.6H60V59.6H61V58.6Z" fill="#F2F2F1"/>
<path d="M62 58.61H61V59.61H62V58.61Z" fill="#F2F2F1"/>
<path d="M63 58.62H62V59.62H63V58.62Z" fill="#F2F2F1"/>
<path d="M64 58.63H63V59.63H64V58.63Z" fill="#F2F2F1"/>
<path d="M65 58.64H64V59.64H65V58.64Z" fill="#F2F2F1"/>
<path d="M66 58.65H65V59.65H66V58.65Z" fill="#F2F2F1" fill-opacity="0.996078"/>
<path d="M67 58.66H66V59.66H67V58.66Z" fill="#F1F1F1" fill-opacity="0.505882"/>
<path d="M29 59.28H28V60.28H29V59.28Z" fill="#F3F3F0" fill-opacity="0.333333"/>
<path d="M30 59.29H29V60.29H30V59.29Z" fill="#F1F1F1" fill-opacity="0.584314"/>
<path d="M31 59.3H30V60.3H31V59.3Z" fill="#F1F1F1" fill-opacity="0.737255"/>
<path d="M32 59.31H31V60.31H32V59.31Z" fill="#F1F1F1" fill-opacity="0.737255"/>
<path d="M33 59.32H32V60.32H33V59.32Z" fill="#F1F1F1" fill-opacity="0.737255"/>
<path d="M34 59.33H33V60.33H34V59.33Z" fill="#F1F1F1" fill-opacity="0.737255"/>
<path d="M35 59.34H34V60.34H35V59.34Z" fill="#F6F6F4" fill-opacity="0.737255"/>
<path d="M36 59.35H35V60.35H36V59.35Z" fill="white" fill-opacity="0.737255"/>
<path d="M37 59.36H36V60.36H37V59.36Z" fill="#888888" fill-opacity="0.956863"/>
<path d="M38 59.37H37V60.37H38V59.37Z" fill="#27272A"/>
<path d="M39 59.38H38V60.38H39V59.38Z" fill="#313133"/>
<path d="M40 59.39H39V60.39H40V59.39Z" fill="#747475" fill-opacity="0.905882"/>
<path d="M41 59.4H40V60.4H41V59.4Z" fill="white" fill-opacity="0.737255"/>
<path d="M42 59.41H41V60.41H42V59.41Z" fill="#F7F7F6" fill-opacity="0.737255"/>
<path d="M43 59.42H42V60.42H43V59.42Z" fill="#F1F1F1" fill-opacity="0.737255"/>
<path d="M44 59.43H43V60.43H44V59.43Z" fill="#F3F3F1" fill-opacity="0.737255"/>
<path d="M45 59.44H44V60.44H45V59.44Z" fill="#F1F1F1" fill-opacity="0.737255"/>
<path d="M46 59.45H45V60.45H46V59.45Z" fill="#F1F1F1" fill-opacity="0.737255"/>
<path d="M47 59.46H46V60.46H47V59.46Z" fill="#F1F1F1" fill-opacity="0.737255"/>
<path d="M48 59.47H47V60.47H48V59.47Z" fill="#F1F1F1" fill-opacity="0.737255"/>
<path d="M49 59.48H48V60.48H49V59.48Z" fill="#F1F1F1" fill-opacity="0.737255"/>
<path d="M50 59.49H49V60.49H50V59.49Z" fill="#F1F1F1" fill-opacity="0.737255"/>
<path d="M51 59.5H50V60.5H51V59.5Z" fill="#F1F1F0" fill-opacity="0.737255"/>
<path d="M52 59.51H51V60.51H52V59.51Z" fill="#FBFBFA" fill-opacity="0.737255"/>
<path d="M53 59.52H52V60.52H53V59.52Z" fill="white" fill-opacity="0.737255"/>
<path d="M54 59.53H53V60.53H54V59.53Z" fill="white" fill-opacity="0.737255"/>
<path d="M55 59.54H54V60.54H55V59.54Z" fill="#FBFBFA" fill-opacity="0.737255"/>
<path d="M56 59.55H55V60.55H56V59.55Z" fill="#F1F1F0" fill-opacity="0.737255"/>
<path d="M57 59.56H56V60.56H57V59.56Z" fill="#F1F1F1" fill-opacity="0.737255"/>
<path d="M58 59.57H57V60.57H58V59.57Z" fill="#F1F1F1" fill-opacity="0.737255"/>
<path d="M59 59.58H58V60.58H59V59.58Z" fill="#F1F1F1" fill-opacity="0.737255"/>
<path d="M60 59.59H59V60.59H60V59.59Z" fill="#F1F1F1" fill-opacity="0.737255"/>
<path d="M61 59.6H60V60.6H61V59.6Z" fill="#F1F1F1" fill-opacity="0.737255"/>
<path d="M62 59.61H61V60.61H62V59.61Z" fill="#F1F1F1" fill-opacity="0.737255"/>
<path d="M63 59.62H62V60.62H63V59.62Z" fill="#F1F1F1" fill-opacity="0.737255"/>
<path d="M64 59.63H63V60.63H64V59.63Z" fill="#F2F2F1" fill-opacity="0.713726"/>
<path d="M65 59.64H64V60.64H65V59.64Z" fill="#F2F2F0" fill-opacity="0.478431"/>
<path d="M66 59.65H65V60.65H66V59.65Z" fill="#F0F0F0" fill-opacity="0.133333"/>
<path d="M37 60.36H36V61.36H37V60.36Z" fill="#232325" fill-opacity="0.486275"/>
<path d="M38 60.37H37V61.37H38V60.37Z" fill="#464648"/>
<path d="M39 60.38H38V61.38H39V60.38Z" fill="#3F3F41"/>
<path d="M40 60.39H39V61.39H40V60.39Z" fill="#494949" fill-opacity="0.164706"/>
<path d="M37 61.36H36V62.36H37V61.36Z" fill="#404040" fill-opacity="0.0156863"/>
<path d="M38 61.37H37V62.37H38V61.37Z" fill="#4A4A4C" fill-opacity="0.419608"/>
<path d="M39 61.38H38V62.38H39V61.38Z" fill="#464649" fill-opacity="0.329412"/>
<path d="M53 61.52H52V62.52H53V61.52Z" fill="#2A2A2F" fill-opacity="0.168627"/>
<path d="M54 61.53H53V62.53H54V61.53Z" fill="#2E2E2E" fill-opacity="0.196078"/>
<path d="M52 62.51H51V63.51H52V62.51Z" fill="#303035" fill-opacity="0.188235"/>
<path d="M53 62.52H52V63.52H53V62.52Z" fill="#48484A"/>
<path d="M54 62.53H53V63.53H54V62.53Z" fill="#48484A"/>
<path d="M55 62.54H54V63.54H55V62.54Z" fill="#333333" fill-opacity="0.235294"/>
<path d="M44 63.43H43V64.43H44V63.43Z" fill="#4A4A4C" fill-opacity="0.513726"/>
<path d="M45 63.44H44V64.44H45V63.44Z" fill="#4A4A4C" fill-opacity="0.392157"/>
<path d="M52 63.51H51V64.51H52V63.51Z" fill="#49494B" fill-opacity="0.811765"/>
<path d="M53 63.52H52V64.52H53V63.52Z" fill="#48484A"/>
<path d="M54 63.53H53V64.53H54V63.53Z" fill="#48484A"/>
<path d="M55 63.54H54V64.54H55V63.54Z" fill="#49494A" fill-opacity="0.537255"/>
<path d="M35 64.34H34V65.34H35V64.34Z" fill="#47474B" fill-opacity="0.239216"/>
<path d="M36 64.35H35V65.35H36V64.35Z" fill="#48484A" fill-opacity="0.470588"/>
<path d="M37 64.36H36V65.36H37V64.36Z" fill="#4C4C4C" fill-opacity="0.105882"/>
<path d="M43 64.42H42V65.42H43V64.42Z" fill="#48484B" fill-opacity="0.278431"/>
<path d="M44 64.43H43V65.43H44V64.43Z" fill="#48484A"/>
<path d="M45 64.44H44V65.44H45V64.44Z" fill="#48484A"/>
<path d="M46 64.45H45V65.45H46V64.45Z" fill="#48484A" fill-opacity="0.580392"/>
<path d="M52 64.51H51V65.51H52V64.51Z" fill="#48484A" fill-opacity="0.745098"/>
<path d="M53 64.52H52V65.52H53V64.52Z" fill="#48484A"/>
<path d="M54 64.53H53V65.53H54V64.53Z" fill="#48484A"/>
<path d="M55 64.54H54V65.54H55V64.54Z" fill="#44444C" fill-opacity="0.117647"/>
<path d="M35 65.34H34V66.34H35V65.34Z" fill="#48484A" fill-opacity="0.894118"/>
<path d="M36 65.35H35V66.35H36V65.35Z" fill="#48484A"/>
<path d="M37 65.36H36V66.36H37V65.36Z" fill="#48484A" fill-opacity="0.992157"/>
<path d="M38 65.37H37V66.37H38V65.37Z" fill="#494949" fill-opacity="0.109804"/>
<path d="M43 65.42H42V66.42H43V65.42Z" fill="#47474A" fill-opacity="0.784314"/>
<path d="M44 65.43H43V66.43H44V65.43Z" fill="#48484A"/>
<path d="M45 65.44H44V66.44H45V65.44Z" fill="#48484A"/>
<path d="M46 65.45H45V66.45H46V65.45Z" fill="#47474B" fill-opacity="0.588235"/>
<path d="M52 65.51H51V66.51H52V65.51Z" fill="#494949" fill-opacity="0.054902"/>
<path d="M53 65.52H52V66.52H53V65.52Z" fill="#474749" fill-opacity="0.560784"/>
<path d="M54 65.53H53V66.53H54V65.53Z" fill="#48484B" fill-opacity="0.372549"/>
<path d="M34 66.33H33V67.33H34V66.33Z" fill="#45454E" fill-opacity="0.101961"/>
<path d="M35 66.34H34V67.34H35V66.34Z" fill="#48484A"/>
<path d="M36 66.35H35V67.35H36V66.35Z" fill="#48484A"/>
<path d="M37 66.36H36V67.36H37V66.36Z" fill="#48484A"/>
<path d="M38 66.37H37V67.37H38V66.37Z" fill="#494949" fill-opacity="0.109804"/>
<path d="M42 66.41H41V67.41H42V66.41Z" fill="#47474C" fill-opacity="0.196078"/>
<path d="M43 66.42H42V67.42H43V66.42Z" fill="#48484A"/>
<path d="M44 66.43H43V67.43H44V66.43Z" fill="#48484A"/>
<path d="M45 66.44H44V67.44H45V66.44Z" fill="#48484A" fill-opacity="0.968627"/>
<path d="M46 66.45H45V67.45H46V66.45Z" fill="#464646" fill-opacity="0.0431373"/>
<path d="M34 67.33H33V68.33H34V67.33Z" fill="#49494B" fill-opacity="0.576471"/>
<path d="M35 67.34H34V68.34H35V67.34Z" fill="#48484A"/>
<path d="M36 67.35H35V68.35H36V67.35Z" fill="#48484A"/>
<path d="M37 67.36H36V68.36H37V67.36Z" fill="#48484A" fill-opacity="0.678431"/>
<path d="M42 67.41H41V68.41H42V67.41Z" fill="#474749" fill-opacity="0.505882"/>
<path d="M43 67.42H42V68.42H43V67.42Z" fill="#48484A"/>
<path d="M44 67.43H43V68.43H44V67.43Z" fill="#48484A"/>
<path d="M45 67.44H44V68.44H45V67.44Z" fill="#48484A" fill-opacity="0.717647"/>
<path d="M33 68.32H32V69.32H33V68.32Z" fill="#404040" fill-opacity="0.0313726"/>
<path d="M34 68.33H33V69.33H34V68.33Z" fill="#48484A"/>
<path d="M35 68.34H34V69.34H35V68.34Z" fill="#48484A"/>
<path d="M36 68.35H35V69.35H36V68.35Z" fill="#48484A"/>
<path d="M37 68.36H36V69.36H37V68.36Z" fill="#494949" fill-opacity="0.192157"/>
<path d="M42 68.41H41V69.41H42V68.41Z" fill="#4A4A4A" fill-opacity="0.243137"/>
<path d="M43 68.42H42V69.42H43V68.42Z" fill="#49494A" fill-opacity="0.827451"/>
<path d="M44 68.43H43V69.43H44V68.43Z" fill="#48484A" fill-opacity="0.913725"/>
<path d="M45 68.44H44V69.44H45V68.44Z" fill="#494949" fill-opacity="0.329412"/>
<path d="M33 69.32H32V70.32H33V69.32Z" fill="#333333" fill-opacity="0.0196078"/>
<path d="M34 69.33H33V70.33H34V69.33Z" fill="#484849" fill-opacity="0.627451"/>
<path d="M35 69.34H34V70.34H35V69.34Z" fill="#48484A"/>
<path d="M36 69.35H35V70.35H36V69.35Z" fill="#49494A" fill-opacity="0.827451"/>
<path d="M44 69.43H43V70.43H44V69.43Z" fill="#555555" fill-opacity="0.0235294"/>
<path d="M35 70.34H34V71.34H35V70.34Z" fill="#47474C" fill-opacity="0.211765"/>
<path d="M36 70.35H35V71.35H36V70.35Z" fill="#464646" fill-opacity="0.113725"/>
<path d="M41 70.4H40V71.4H41V70.4Z" fill="#46464D" fill-opacity="0.129412"/>
<path d="M42 70.41H41V71.41H42V70.41Z" fill="#48484C" fill-opacity="0.317647"/>
<path d="M49 70.48H48V71.48H49V70.48Z" fill="#47474C" fill-opacity="0.184314"/>
<path d="M50 70.49H49V71.49H50V70.49Z" fill="#484849" fill-opacity="0.803922"/>
<path d="M51 70.5H50V71.5H51V70.5Z" fill="#484849" fill-opacity="0.682353"/>
<path d="M52 70.51H51V71.51H52V70.51Z" fill="#4B4B4B" fill-opacity="0.160784"/>
<path d="M40 71.39H39V72.39H40V71.39Z" fill="#555555" fill-opacity="0.0235294"/>
<path d="M41 71.4H40V72.4H41V71.4Z" fill="#49494A" fill-opacity="0.909804"/>
<path d="M42 71.41H41V72.41H42V71.41Z" fill="#48484A"/>
<path d="M43 71.42H42V72.42H43V71.42Z" fill="#49494A" fill-opacity="0.67451"/>
<path d="M49 71.48H48V72.48H49V71.48Z" fill="#48484B" fill-opacity="0.737255"/>
<path d="M50 71.49H49V72.49H50V71.49Z" fill="#48484A"/>
<path d="M51 71.5H50V72.5H51V71.5Z" fill="#48484A"/>
<path d="M52 71.51H51V72.51H52V71.51Z" fill="#474749" fill-opacity="0.490196"/>
<path d="M40 72.39H39V73.39H40V72.39Z" fill="#48484B" fill-opacity="0.278431"/>
<path d="M41 72.4H40V73.4H41V72.4Z" fill="#48484A"/>
<path d="M42 72.41H41V73.41H42V72.41Z" fill="#48484A"/>
<path d="M43 72.42H42V73.42H43V72.42Z" fill="#48484A"/>
<path d="M44 72.43H43V73.43H44V72.43Z" fill="black" fill-opacity="0.01"/>
<path d="M48 72.47H47V73.47H48V72.47Z" fill="#4B4B4B" fill-opacity="0.160784"/>
<path d="M49 72.48H48V73.48H49V72.48Z" fill="#48484A"/>
<path d="M50 72.49H49V73.49H50V72.49Z" fill="#48484A"/>
<path d="M51 72.5H50V73.5H51V72.5Z" fill="#48484A"/>
<path d="M52 72.51H51V73.51H52V72.51Z" fill="#494949" fill-opacity="0.137255"/>
<path d="M40 73.39H39V74.39H40V73.39Z" fill="#464646" fill-opacity="0.113725"/>
<path d="M41 73.4H40V74.4H41V73.4Z" fill="#48484A" fill-opacity="0.94902"/>
<path d="M42 73.41H41V74.41H42V73.41Z" fill="#48484A"/>
<path d="M43 73.42H42V74.42H43V73.42Z" fill="#494949" fill-opacity="0.356863"/>
<path d="M48 73.47H47V74.47H48V73.47Z" fill="#474749" fill-opacity="0.478431"/>
<path d="M49 73.48H48V74.48H49V73.48Z" fill="#48484A"/>
<path d="M50 73.49H49V74.49H50V73.49Z" fill="#48484A"/>
<path d="M51 73.5H50V74.5H51V73.5Z" fill="#48484A" fill-opacity="0.862745"/>
<path d="M41 74.4H40V75.4H41V74.4Z" fill="#474747" fill-opacity="0.0980392"/>
<path d="M42 74.41H41V75.41H42V74.41Z" fill="#46464B" fill-opacity="0.172549"/>
<path d="M48 74.47H47V75.47H48V74.47Z" fill="#4A4A4A" fill-opacity="0.243137"/>
<path d="M49 74.48H48V75.48H49V74.48Z" fill="#47474A" fill-opacity="0.839216"/>
<path d="M50 74.49H49V75.49H50V74.49Z" fill="#48484A" fill-opacity="0.933333"/>
<path d="M51 74.5H50V75.5H51V74.5Z" fill="#48484A" fill-opacity="0.403922"/>
</g>
</g>
<defs>
<clipPath id="clip0_63_60023">
<rect width="100" height="100" fill="white"/>
</clipPath>
<clipPath id="clip1_63_60023">
<rect width="100" height="100" fill="white"/>
</clipPath>
</defs>
</svg>
