<svg width="55" height="55" viewBox="0 0 55 55" fill="none" xmlns="http://www.w3.org/2000/svg">
<path d="M47.1387 19.64C45.1145 19.694 43.1514 18.9437 41.6791 17.5535C40.2069 16.1633 39.3454 14.2464 39.2832 12.2225C39.3198 10.7774 39.7644 9.3722 40.5656 8.16905L45.5087 0.814353C45.6986 0.561478 45.9448 0.356256 46.2277 0.214918C46.5106 0.073579 46.8225 0 47.1387 0C47.455 0 47.7669 0.073579 48.0498 0.214918C48.3327 0.356256 48.5788 0.561478 48.7687 0.814353L53.649 8.07282C54.4831 9.29986 54.9498 10.7394 54.9942 12.2225C54.9321 14.2464 54.0706 16.1633 52.5983 17.5535C51.126 18.9437 49.1629 19.694 47.1387 19.64ZM47.1387 5.42749L43.8865 10.2645C43.4801 10.8398 43.2458 11.5189 43.211 12.2225C43.325 13.1841 43.7878 14.0705 44.5117 14.7137C45.2356 15.3569 46.1703 15.7122 47.1387 15.7122C48.1071 15.7122 49.0418 15.3569 49.7657 14.7137C50.4897 14.0705 50.9525 13.1841 51.0665 12.2225C51.0225 11.4808 50.7669 10.7673 50.33 10.1663L47.1387 5.42749ZM42.229 54.9897H12.771C9.60727 54.9931 6.55518 53.8208 4.20719 51.7005C1.85921 49.5801 0.382839 46.663 0.0646965 43.5153C-0.253446 40.3676 0.609334 37.2141 2.48555 34.6668C4.36176 32.1194 7.11755 30.3602 10.2179 29.7304C11.0548 25.7669 13.2285 22.2115 16.3749 19.66C19.5213 17.1086 23.4491 15.7161 27.5 15.7161C31.5509 15.7161 35.4787 17.1086 38.6251 19.66C41.7715 22.2115 43.9452 25.7669 44.7821 29.7304C47.8825 30.3602 50.6382 32.1194 52.5144 34.6668C54.3907 37.2141 55.2534 40.3676 54.9353 43.5153C54.6172 46.663 53.1408 49.5801 50.7928 51.7005C48.4448 53.8208 45.3927 54.9931 42.229 54.9897ZM27.5 19.64C24.1471 19.6432 20.9109 20.8716 18.4004 23.0942C15.8899 25.3167 14.2783 28.3802 13.8688 31.708L13.6724 33.3027L12.0718 33.4284C9.79226 33.6019 7.66888 34.6529 6.14842 36.3602C4.62796 38.0674 3.82896 40.2979 3.91954 42.5823C4.01011 44.8666 4.98318 47.0268 6.63403 48.6083C8.28489 50.1899 10.4848 51.0694 12.771 51.062H42.229C44.5152 51.0694 46.7151 50.1899 48.366 48.6083C50.0168 47.0268 50.9899 44.8666 51.0805 42.5823C51.171 40.2979 50.372 38.0674 48.8516 36.3602C47.3311 34.6529 45.2077 33.6019 42.9282 33.4284L41.3276 33.3027L41.1332 31.708C40.7228 28.3802 39.1107 25.317 36.6 23.0945C34.0893 20.8721 30.853 19.6435 27.5 19.64Z" fill="#F8F8F8"/>
</svg>
