<svg width="39" height="56" viewBox="0 0 39 56" fill="none" xmlns="http://www.w3.org/2000/svg">
<path d="M22.4347 28L38.3464 13.494C38.6417 13.2244 38.8502 12.8691 38.9441 12.4752C39.0381 12.0813 39.0131 11.6675 38.8724 11.2885C38.7318 10.9095 38.4821 10.5834 38.1566 10.3532C37.8311 10.1231 37.445 9.99993 37.0497 10H31.1998V0H27.2999V14H31.9213L19.5 25.324L7.07872 14H11.7001V0H7.80021V10H1.95031C1.55495 9.99993 1.16891 10.1231 0.843384 10.3532C0.517855 10.5834 0.268214 10.9095 0.127566 11.2885C-0.0130828 11.6675 -0.0380941 12.0813 0.0558488 12.4752C0.149792 12.8691 0.358251 13.2244 0.653582 13.494L16.5653 28L0.653582 42.506C0.358251 42.7756 0.149792 43.1309 0.0558488 43.5248C-0.0380941 43.9187 -0.0130828 44.3325 0.127566 44.7115C0.268214 45.0905 0.517855 45.4166 0.843384 45.6468C1.16891 45.8769 1.55495 46.0001 1.95031 46H7.80021V56H11.7001V42H7.07872L19.5 30.676L31.9213 42H27.2999V56H31.1998V46H37.0497C37.4449 45.9997 37.8306 45.8762 38.1559 45.6459C38.4811 45.4156 38.7304 45.0895 38.8708 44.7106C39.0112 44.3317 39.0361 43.918 38.9421 43.5243C38.8481 43.1306 38.6397 42.7755 38.3445 42.506L22.4347 28Z" fill="#F8F8F8"/>
</svg>
