<svg width="44" height="43" viewBox="0 0 44 43" fill="none" xmlns="http://www.w3.org/2000/svg">
<path d="M40.1556 43L25.1056 27.95C23.9111 28.9056 22.5375 29.662 20.9847 30.2194C19.4319 30.7769 17.7796 31.0556 16.0278 31.0556C11.688 31.0556 8.01544 29.5529 5.01022 26.5477C2.00341 23.5409 0.5 19.8676 0.5 15.5278C0.5 11.188 2.00341 7.51465 5.01022 4.50783C8.01544 1.50261 11.688 0 16.0278 0C20.3676 0 24.0409 1.50261 27.0477 4.50783C30.0529 7.51465 31.5556 11.188 31.5556 15.5278C31.5556 17.2796 31.2769 18.9319 30.7194 20.4847C30.162 22.0375 29.4056 23.4111 28.45 24.6056L43.5 39.6556L40.1556 43ZM16.0278 26.2778C19.0139 26.2778 21.5525 25.233 23.6436 23.1436C25.733 21.0525 26.7778 18.5139 26.7778 15.5278C26.7778 12.5417 25.733 10.0031 23.6436 7.912C21.5525 5.82252 19.0139 4.77778 16.0278 4.77778C13.0417 4.77778 10.5031 5.82252 8.412 7.912C6.32252 10.0031 5.27778 12.5417 5.27778 15.5278C5.27778 18.5139 6.32252 21.0525 8.412 23.1436C10.5031 25.233 13.0417 26.2778 16.0278 26.2778Z" fill="#373737"/>
</svg>
