<svg width="87" height="80" viewBox="0 0 87 80" fill="none" xmlns="http://www.w3.org/2000/svg">
<path d="M43.5 15.8182C42.3795 15.8182 41.441 15.4385 40.6844 14.6793C39.9251 13.9226 39.5455 12.9841 39.5455 11.8636V3.95454C39.5455 2.83409 39.9251 1.89423 40.6844 1.13495C41.441 0.378318 42.3795 0 43.5 0C44.6205 0 45.5603 0.378318 46.3196 1.13495C47.0762 1.89423 47.4545 2.83409 47.4545 3.95454V11.8636C47.4545 12.9841 47.0762 13.9226 46.3196 14.6793C45.5603 15.4385 44.6205 15.8182 43.5 15.8182ZM63.075 23.925C62.35 23.2 61.9875 22.2773 61.9875 21.1568C61.9875 20.0364 62.35 19.1136 63.075 18.3886L68.6114 12.7534C69.4023 11.9625 70.3408 11.567 71.427 11.567C72.5158 11.567 73.4557 11.9625 74.2466 12.7534C74.9716 13.4784 75.3341 14.4011 75.3341 15.5216C75.3341 16.642 74.9716 17.5648 74.2466 18.2898L68.6114 23.925C67.8864 24.65 66.9636 25.0125 65.8432 25.0125C64.7227 25.0125 63.8 24.65 63.075 23.925ZM75.1364 47.4545C74.0159 47.4545 73.0774 47.0749 72.3207 46.3156C71.5615 45.559 71.1818 44.6204 71.1818 43.5C71.1818 42.3795 71.5615 41.4397 72.3207 40.6804C73.0774 39.9238 74.0159 39.5454 75.1364 39.5454H83.0455C84.1659 39.5454 85.1045 39.9238 85.8611 40.6804C86.6204 41.4397 87 42.3795 87 43.5C87 44.6204 86.6204 45.559 85.8611 46.3156C85.1045 47.0749 84.1659 47.4545 83.0455 47.4545H75.1364ZM68.6114 74.2465L63.075 68.6113C62.35 67.8863 61.9875 66.9636 61.9875 65.8431C61.9875 64.7227 62.35 63.8 63.075 63.075C63.8 62.35 64.7227 61.9875 65.8432 61.9875C66.9636 61.9875 67.8864 62.35 68.6114 63.075L74.2466 68.6113C75.0375 69.4022 75.433 70.3408 75.433 71.427C75.433 72.5158 75.0375 73.4556 74.2466 74.2465C73.4557 75.0375 72.5158 75.4329 71.427 75.4329C70.3408 75.4329 69.4023 75.0375 68.6114 74.2465ZM18.3886 23.925L12.7534 18.2898C12.0284 17.5648 11.6659 16.642 11.6659 15.5216C11.6659 14.4011 12.0284 13.4784 12.7534 12.7534C13.5443 11.9625 14.4842 11.567 15.573 11.567C16.6592 11.567 17.5977 11.9625 18.3886 12.7534L23.925 18.3886C24.65 19.1136 25.0125 20.0364 25.0125 21.1568C25.0125 22.2773 24.65 23.2 23.925 23.925C23.2 24.65 22.2773 25.0125 21.1568 25.0125C20.0364 25.0125 19.1136 24.65 18.3886 23.925ZM19.7727 71.1818H37.5682C39.2159 71.1818 40.6158 70.6044 41.7679 69.4497C42.9226 68.2976 43.5 66.8977 43.5 65.25C43.5 63.6022 42.9398 62.2023 41.8193 61.0502C40.6989 59.8955 39.3148 59.3182 37.667 59.3182H32.625L30.6477 54.5727C29.725 52.3977 28.275 50.6682 26.2977 49.3843C24.3205 48.0978 22.1455 47.4545 19.7727 47.4545C16.4773 47.4545 13.6761 48.6079 11.3693 50.9147C9.0625 53.2216 7.90909 56.0227 7.90909 59.3182C7.90909 62.6136 9.0625 65.4147 11.3693 67.7216C13.6761 70.0284 16.4773 71.1818 19.7727 71.1818ZM19.7727 79.0909C14.3023 79.0909 9.63986 77.1637 5.7855 73.3093C1.9285 69.4523 0 64.7886 0 59.3182C0 53.8477 1.9285 49.184 5.7855 45.327C9.63986 41.4726 14.3023 39.5454 19.7727 39.5454C23.7273 39.5454 27.3365 40.6158 30.6003 42.7565C33.8615 44.8999 36.283 47.7841 37.8648 51.4091C41.6875 51.4091 44.8999 52.8261 47.502 55.6602C50.1067 58.4943 51.4091 61.8886 51.4091 65.8431C51.2773 69.6 49.8774 72.7478 47.2094 75.2866C44.5387 77.8228 41.325 79.0909 37.5682 79.0909H19.7727ZM51.4091 65.8431C51.0795 64.525 50.75 63.2397 50.4205 61.9875C50.0909 60.7352 49.7614 59.45 49.4318 58.1318C52.3977 56.8795 54.7863 54.9352 56.5975 52.2988C58.4113 49.6625 59.3182 46.7295 59.3182 43.5C59.3182 39.15 57.7693 35.4261 54.6716 32.3284C51.5739 29.2307 47.85 27.6818 43.5 27.6818C39.5455 27.6818 36.0852 28.967 33.1193 31.5375C30.1534 34.1079 28.4068 37.3704 27.8795 41.325C26.5614 40.9954 25.2102 40.6988 23.8261 40.4352C22.442 40.1716 21.0909 39.875 19.7727 39.5454C20.6955 33.7454 23.4135 29 27.927 25.3091C32.4431 21.6182 37.6341 19.7727 43.5 19.7727C50.0909 19.7727 55.6932 22.0795 60.3068 26.6932C64.9205 31.3068 67.2273 36.9091 67.2273 43.5C67.2273 48.575 65.7773 53.1385 62.8773 57.1906C59.9773 61.2453 56.1545 64.1295 51.4091 65.8431Z" fill="#F8F8F8"/>
</svg>
