<svg width="59" height="56" viewBox="0 0 59 56" fill="none" xmlns="http://www.w3.org/2000/svg">
<path d="M11.1667 17.2778H8.11111C6.49034 17.2778 4.93596 17.9216 3.7899 19.0677C2.64385 20.2137 2 21.7681 2 23.3889C2 25.0097 2.64385 26.564 3.7899 27.7101C4.93596 28.8561 6.49034 29.5 8.11111 29.5H11.1667H57M26.4444 53.9444H21.8611C20.2403 53.9444 18.686 53.3006 17.5399 52.1545C16.3938 51.0085 15.75 49.4541 15.75 47.8333C15.75 46.2126 16.3938 44.6582 17.5399 43.5121C18.686 42.3661 20.2403 41.7222 21.8611 41.7222H26.4444H44.7778M34.0833 2H29.5C27.8792 2 26.3248 2.64385 25.1788 3.7899C24.0327 4.93596 23.3889 6.49034 23.3889 8.11111C23.3889 9.73188 24.0327 11.2863 25.1788 12.4323C26.3248 13.5784 27.8792 14.2222 29.5 14.2222M29.5 14.2222H34.0833M29.5 14.2222H53.9444" stroke="#F8F8F8" stroke-width="4" stroke-linecap="round" stroke-linejoin="round"/>
</svg>
